<svg aria-roledescription="er" viewBox="0 0 528.734375 775.560546875" style="max-width: 528.734px; background-color: white;" xmlns:xlink="http://www.w3.org/1999/xlink" xmlns="http://www.w3.org/2000/svg" width="100%" id="mermaid-0"><style>#mermaid-0{font-family:"trebuchet ms",verdana,arial,sans-serif;font-size:16px;fill:#000000;}#mermaid-0 .error-icon{fill:#552222;}#mermaid-0 .error-text{fill:#552222;stroke:#552222;}#mermaid-0 .edge-thickness-normal{stroke-width:2px;}#mermaid-0 .edge-thickness-thick{stroke-width:3.5px;}#mermaid-0 .edge-pattern-solid{stroke-dasharray:0;}#mermaid-0 .edge-pattern-dashed{stroke-dasharray:3;}#mermaid-0 .edge-pattern-dotted{stroke-dasharray:2;}#mermaid-0 .marker{fill:#666;stroke:#666;}#mermaid-0 .marker.cross{stroke:#666;}#mermaid-0 svg{font-family:"trebuchet ms",verdana,arial,sans-serif;font-size:16px;}#mermaid-0 .entityBox{fill:#eee;stroke:#999;}#mermaid-0 .attributeBoxOdd{fill:#ffffff;stroke:#999;}#mermaid-0 .attributeBoxEven{fill:#f2f2f2;stroke:#999;}#mermaid-0 .relationshipLabelBox{fill:hsl(-160, 0%, 93.3333333333%);opacity:0.7;background-color:hsl(-160, 0%, 93.3333333333%);}#mermaid-0 .relationshipLabelBox rect{opacity:0.5;}#mermaid-0 .relationshipLine{stroke:#666;}#mermaid-0 .entityTitleText{text-anchor:middle;font-size:18px;fill:#000000;}#mermaid-0 :root{--mermaid-font-family:"trebuchet ms",verdana,arial,sans-serif;}</style><g/><defs><marker orient="auto" markerHeight="18" markerWidth="18" refY="9" refX="0" id="ONLY_ONE_START"><path d="M9,0 L9,18 M15,0 L15,18" fill="none" stroke="gray"/></marker></defs><defs><marker orient="auto" markerHeight="18" markerWidth="18" refY="9" refX="18" id="ONLY_ONE_END"><path d="M3,0 L3,18 M9,0 L9,18" fill="none" stroke="gray"/></marker></defs><defs><marker orient="auto" markerHeight="18" markerWidth="30" refY="9" refX="0" id="ZERO_OR_ONE_START"><circle r="6" cy="9" cx="21" fill="white" stroke="gray"/><path d="M9,0 L9,18" fill="none" stroke="gray"/></marker></defs><defs><marker orient="auto" markerHeight="18" markerWidth="30" refY="9" refX="30" id="ZERO_OR_ONE_END"><circle r="6" cy="9" cx="9" fill="white" stroke="gray"/><path d="M21,0 L21,18" fill="none" stroke="gray"/></marker></defs><defs><marker orient="auto" markerHeight="36" markerWidth="45" refY="18" refX="18" id="ONE_OR_MORE_START"><path d="M0,18 Q 18,0 36,18 Q 18,36 0,18 M42,9 L42,27" fill="none" stroke="gray"/></marker></defs><defs><marker orient="auto" markerHeight="36" markerWidth="45" refY="18" refX="27" id="ONE_OR_MORE_END"><path d="M3,9 L3,27 M9,18 Q27,0 45,18 Q27,36 9,18" fill="none" stroke="gray"/></marker></defs><defs><marker orient="auto" markerHeight="36" markerWidth="57" refY="18" refX="18" id="ZERO_OR_MORE_START"><circle r="6" cy="18" cx="48" fill="white" stroke="gray"/><path d="M0,18 Q18,0 36,18 Q18,36 0,18" fill="none" stroke="gray"/></marker></defs><defs><marker orient="auto" markerHeight="36" markerWidth="57" refY="18" refX="39" id="ZERO_OR_MORE_END"><circle r="6" cy="18" cx="9" fill="white" stroke="gray"/><path d="M21,18 Q39,0 57,18 Q39,36 21,18" fill="none" stroke="gray"/></marker></defs><path style="stroke: gray; fill: none;" marker-start="url(#ZERO_OR_MORE_START)" marker-end="url(#ONLY_ONE_END)" d="M175.78125,304.51532265375374L160.89192708333334,315.8545657531281C146.00260416666666,327.1938088525025,116.22395833333333,349.8722950512512,101.33463541666667,386.1060694006256C86.4453125,422.33984375,86.4453125,472.12890625,86.4453125,497.0234375L86.4453125,521.91796875" class="er relationshipLine"/><path style="stroke: gray; fill: none;" marker-start="url(#ZERO_OR_MORE_START)" marker-end="url(#ONLY_ONE_END)" d="M275.84375,304.51532265375374L290.7330729166667,315.8545657531281C305.6223958333333,327.1938088525025,335.4010416666667,349.8722950512512,350.2903645833333,369.54487148395896C365.1796875,389.2174479166667,365.1796875,405.8841145833333,365.1796875,414.2174479166667L365.1796875,422.55078125" class="er relationshipLine"/><path style="stroke: gray; fill: none;" marker-start="url(#ZERO_OR_MORE_START)" marker-end="url(#ONLY_ONE_END)" d="M282.69756584822574,110.275390625L273.2167215401881,118.60872395833333C263.7358772321505,126.94205729166667,244.77418861607524,143.60872395833334,235.2933443080376,162.10872395833334C225.8125,180.60872395833334,225.8125,200.94205729166666,225.8125,211.10872395833334L225.8125,221.275390625" class="er relationshipLine"/><path style="stroke: gray; fill: none;" marker-start="url(#ZERO_OR_MORE_START)" marker-end="url(#ONLY_ONE_END)" d="M385.40399665177426,110.275390625L394.8848409598119,118.60872395833333C404.3656852678495,126.94205729166667,423.3273738839248,143.60872395833334,432.8082181919624,160.275390625C442.2890625,176.94205729166666,442.2890625,193.60872395833334,442.2890625,201.94205729166666L442.2890625,210.275390625" class="er relationshipLine"/><g transform="translate(252.890625,422.55078125 )" id="entity-User-b72f43bd-3311-4f61-8860-f7fd9c3ffc94"><rect height="333.009765625" width="224.578125" y="0" x="0" class="er entityBox"/><text style="dominant-baseline: middle; text-anchor: middle; font-size: 12px;" transform="translate(112.2890625,12)" y="0" x="0" id="text-entity-User-b72f43bd-3311-4f61-8860-f7fd9c3ffc94" class="er entityLabel">User</text><rect height="22.091796875" width="53.671875" y="24" x="0" class="er attributeBoxOdd"/><text style="dominant-baseline: middle; font-size: 10.2px;" transform="translate(5,35.0458984375)" y="0" x="0" id="text-entity-User-b72f43bd-3311-4f61-8860-f7fd9c3ffc94-attr-1-type" class="er entityLabel">String</text><rect height="22.091796875" width="102.5625" y="24" x="53.671875" class="er attributeBoxOdd"/><text style="dominant-baseline: middle; font-size: 10.2px;" transform="translate(58.671875,35.0458984375)" y="0" x="0" id="text-entity-User-b72f43bd-3311-4f61-8860-f7fd9c3ffc94-attr-1-name" class="er entityLabel">id</text><rect height="22.091796875" width="21.5625" y="24" x="156.234375" class="er attributeBoxOdd"/><text style="dominant-baseline: middle; font-size: 10.2px;" transform="translate(161.234375,35.0458984375)" y="0" x="0" id="text-entity-User-b72f43bd-3311-4f61-8860-f7fd9c3ffc94-attr-1-key" class="er entityLabel">PK</text><rect height="22.091796875" width="46.78125" y="24" x="177.796875" class="er attributeBoxOdd"/><text style="dominant-baseline: middle; font-size: 10.2px;" transform="translate(182.796875,35.0458984375)" y="0" x="0" id="text-entity-User-b72f43bd-3311-4f61-8860-f7fd9c3ffc94-attr-1-comment" class="er entityLabel"/><rect height="22.091796875" width="53.671875" y="46.091796875" x="0" class="er attributeBoxEven"/><text style="dominant-baseline: middle; font-size: 10.2px;" transform="translate(5,57.1376953125)" y="0" x="0" id="text-entity-User-b72f43bd-3311-4f61-8860-f7fd9c3ffc94-attr-2-type" class="er entityLabel">String</text><rect height="22.091796875" width="102.5625" y="46.091796875" x="53.671875" class="er attributeBoxEven"/><text style="dominant-baseline: middle; font-size: 10.2px;" transform="translate(58.671875,57.1376953125)" y="0" x="0" id="text-entity-User-b72f43bd-3311-4f61-8860-f7fd9c3ffc94-attr-2-name" class="er entityLabel">email</text><rect height="22.091796875" width="21.5625" y="46.091796875" x="156.234375" class="er attributeBoxEven"/><text style="dominant-baseline: middle; font-size: 10.2px;" transform="translate(161.234375,57.1376953125)" y="0" x="0" id="text-entity-User-b72f43bd-3311-4f61-8860-f7fd9c3ffc94-attr-2-key" class="er entityLabel"/><rect height="22.091796875" width="46.78125" y="46.091796875" x="177.796875" class="er attributeBoxEven"/><text style="dominant-baseline: middle; font-size: 10.2px;" transform="translate(182.796875,57.1376953125)" y="0" x="0" id="text-entity-User-b72f43bd-3311-4f61-8860-f7fd9c3ffc94-attr-2-comment" class="er entityLabel"/><rect height="22.091796875" width="53.671875" y="68.18359375" x="0" class="er attributeBoxOdd"/><text style="dominant-baseline: middle; font-size: 10.2px;" transform="translate(5,79.2294921875)" y="0" x="0" id="text-entity-User-b72f43bd-3311-4f61-8860-f7fd9c3ffc94-attr-3-type" class="er entityLabel">String</text><rect height="22.091796875" width="102.5625" y="68.18359375" x="53.671875" class="er attributeBoxOdd"/><text style="dominant-baseline: middle; font-size: 10.2px;" transform="translate(58.671875,79.2294921875)" y="0" x="0" id="text-entity-User-b72f43bd-3311-4f61-8860-f7fd9c3ffc94-attr-3-name" class="er entityLabel">name</text><rect height="22.091796875" width="21.5625" y="68.18359375" x="156.234375" class="er attributeBoxOdd"/><text style="dominant-baseline: middle; font-size: 10.2px;" transform="translate(161.234375,79.2294921875)" y="0" x="0" id="text-entity-User-b72f43bd-3311-4f61-8860-f7fd9c3ffc94-attr-3-key" class="er entityLabel"/><rect height="22.091796875" width="46.78125" y="68.18359375" x="177.796875" class="er attributeBoxOdd"/><text style="dominant-baseline: middle; font-size: 10.2px;" transform="translate(182.796875,79.2294921875)" y="0" x="0" id="text-entity-User-b72f43bd-3311-4f61-8860-f7fd9c3ffc94-attr-3-comment" class="er entityLabel">nullable</text><rect height="22.091796875" width="53.671875" y="90.275390625" x="0" class="er attributeBoxEven"/><text style="dominant-baseline: middle; font-size: 10.2px;" transform="translate(5,101.3212890625)" y="0" x="0" id="text-entity-User-b72f43bd-3311-4f61-8860-f7fd9c3ffc94-attr-4-type" class="er entityLabel">String</text><rect height="22.091796875" width="102.5625" y="90.275390625" x="53.671875" class="er attributeBoxEven"/><text style="dominant-baseline: middle; font-size: 10.2px;" transform="translate(58.671875,101.3212890625)" y="0" x="0" id="text-entity-User-b72f43bd-3311-4f61-8860-f7fd9c3ffc94-attr-4-name" class="er entityLabel">nickname</text><rect height="22.091796875" width="21.5625" y="90.275390625" x="156.234375" class="er attributeBoxEven"/><text style="dominant-baseline: middle; font-size: 10.2px;" transform="translate(161.234375,101.3212890625)" y="0" x="0" id="text-entity-User-b72f43bd-3311-4f61-8860-f7fd9c3ffc94-attr-4-key" class="er entityLabel"/><rect height="22.091796875" width="46.78125" y="90.275390625" x="177.796875" class="er attributeBoxEven"/><text style="dominant-baseline: middle; font-size: 10.2px;" transform="translate(182.796875,101.3212890625)" y="0" x="0" id="text-entity-User-b72f43bd-3311-4f61-8860-f7fd9c3ffc94-attr-4-comment" class="er entityLabel">nullable</text><rect height="22.091796875" width="53.671875" y="112.3671875" x="0" class="er attributeBoxOdd"/><text style="dominant-baseline: middle; font-size: 10.2px;" transform="translate(5,123.4130859375)" y="0" x="0" id="text-entity-User-b72f43bd-3311-4f61-8860-f7fd9c3ffc94-attr-5-type" class="er entityLabel">String</text><rect height="22.091796875" width="102.5625" y="112.3671875" x="53.671875" class="er attributeBoxOdd"/><text style="dominant-baseline: middle; font-size: 10.2px;" transform="translate(58.671875,123.4130859375)" y="0" x="0" id="text-entity-User-b72f43bd-3311-4f61-8860-f7fd9c3ffc94-attr-5-name" class="er entityLabel">pronouns</text><rect height="22.091796875" width="21.5625" y="112.3671875" x="156.234375" class="er attributeBoxOdd"/><text style="dominant-baseline: middle; font-size: 10.2px;" transform="translate(161.234375,123.4130859375)" y="0" x="0" id="text-entity-User-b72f43bd-3311-4f61-8860-f7fd9c3ffc94-attr-5-key" class="er entityLabel"/><rect height="22.091796875" width="46.78125" y="112.3671875" x="177.796875" class="er attributeBoxOdd"/><text style="dominant-baseline: middle; font-size: 10.2px;" transform="translate(182.796875,123.4130859375)" y="0" x="0" id="text-entity-User-b72f43bd-3311-4f61-8860-f7fd9c3ffc94-attr-5-comment" class="er entityLabel">nullable</text><rect height="22" width="53.671875" y="134.458984375" x="0" class="er attributeBoxEven"/><text style="dominant-baseline: middle; font-size: 10.2px;" transform="translate(5,145.458984375)" y="0" x="0" id="text-entity-User-b72f43bd-3311-4f61-8860-f7fd9c3ffc94-attr-6-type" class="er entityLabel">Boolean</text><rect height="22" width="102.5625" y="134.458984375" x="53.671875" class="er attributeBoxEven"/><text style="dominant-baseline: middle; font-size: 10.2px;" transform="translate(58.671875,145.458984375)" y="0" x="0" id="text-entity-User-b72f43bd-3311-4f61-8860-f7fd9c3ffc94-attr-6-name" class="er entityLabel">active</text><rect height="22" width="21.5625" y="134.458984375" x="156.234375" class="er attributeBoxEven"/><text style="dominant-baseline: middle; font-size: 10.2px;" transform="translate(161.234375,145.458984375)" y="0" x="0" id="text-entity-User-b72f43bd-3311-4f61-8860-f7fd9c3ffc94-attr-6-key" class="er entityLabel"/><rect height="22" width="46.78125" y="134.458984375" x="177.796875" class="er attributeBoxEven"/><text style="dominant-baseline: middle; font-size: 10.2px;" transform="translate(182.796875,145.458984375)" y="0" x="0" id="text-entity-User-b72f43bd-3311-4f61-8860-f7fd9c3ffc94-attr-6-comment" class="er entityLabel"/><rect height="22" width="53.671875" y="156.458984375" x="0" class="er attributeBoxOdd"/><text style="dominant-baseline: middle; font-size: 10.2px;" transform="translate(5,167.458984375)" y="0" x="0" id="text-entity-User-b72f43bd-3311-4f61-8860-f7fd9c3ffc94-attr-7-type" class="er entityLabel">Boolean</text><rect height="22" width="102.5625" y="156.458984375" x="53.671875" class="er attributeBoxOdd"/><text style="dominant-baseline: middle; font-size: 10.2px;" transform="translate(58.671875,167.458984375)" y="0" x="0" id="text-entity-User-b72f43bd-3311-4f61-8860-f7fd9c3ffc94-attr-7-name" class="er entityLabel">admin</text><rect height="22" width="21.5625" y="156.458984375" x="156.234375" class="er attributeBoxOdd"/><text style="dominant-baseline: middle; font-size: 10.2px;" transform="translate(161.234375,167.458984375)" y="0" x="0" id="text-entity-User-b72f43bd-3311-4f61-8860-f7fd9c3ffc94-attr-7-key" class="er entityLabel"/><rect height="22" width="46.78125" y="156.458984375" x="177.796875" class="er attributeBoxOdd"/><text style="dominant-baseline: middle; font-size: 10.2px;" transform="translate(182.796875,167.458984375)" y="0" x="0" id="text-entity-User-b72f43bd-3311-4f61-8860-f7fd9c3ffc94-attr-7-comment" class="er entityLabel"/><rect height="22.091796875" width="53.671875" y="178.458984375" x="0" class="er attributeBoxEven"/><text style="dominant-baseline: middle; font-size: 10.2px;" transform="translate(5,189.5048828125)" y="0" x="0" id="text-entity-User-b72f43bd-3311-4f61-8860-f7fd9c3ffc94-attr-8-type" class="er entityLabel">String</text><rect height="22.091796875" width="102.5625" y="178.458984375" x="53.671875" class="er attributeBoxEven"/><text style="dominant-baseline: middle; font-size: 10.2px;" transform="translate(58.671875,189.5048828125)" y="0" x="0" id="text-entity-User-b72f43bd-3311-4f61-8860-f7fd9c3ffc94-attr-8-name" class="er entityLabel">hashedPassword</text><rect height="22.091796875" width="21.5625" y="178.458984375" x="156.234375" class="er attributeBoxEven"/><text style="dominant-baseline: middle; font-size: 10.2px;" transform="translate(161.234375,189.5048828125)" y="0" x="0" id="text-entity-User-b72f43bd-3311-4f61-8860-f7fd9c3ffc94-attr-8-key" class="er entityLabel"/><rect height="22.091796875" width="46.78125" y="178.458984375" x="177.796875" class="er attributeBoxEven"/><text style="dominant-baseline: middle; font-size: 10.2px;" transform="translate(182.796875,189.5048828125)" y="0" x="0" id="text-entity-User-b72f43bd-3311-4f61-8860-f7fd9c3ffc94-attr-8-comment" class="er entityLabel"/><rect height="22.091796875" width="53.671875" y="200.55078125" x="0" class="er attributeBoxOdd"/><text style="dominant-baseline: middle; font-size: 10.2px;" transform="translate(5,211.5966796875)" y="0" x="0" id="text-entity-User-b72f43bd-3311-4f61-8860-f7fd9c3ffc94-attr-9-type" class="er entityLabel">String</text><rect height="22.091796875" width="102.5625" y="200.55078125" x="53.671875" class="er attributeBoxOdd"/><text style="dominant-baseline: middle; font-size: 10.2px;" transform="translate(58.671875,211.5966796875)" y="0" x="0" id="text-entity-User-b72f43bd-3311-4f61-8860-f7fd9c3ffc94-attr-9-name" class="er entityLabel">salt</text><rect height="22.091796875" width="21.5625" y="200.55078125" x="156.234375" class="er attributeBoxOdd"/><text style="dominant-baseline: middle; font-size: 10.2px;" transform="translate(161.234375,211.5966796875)" y="0" x="0" id="text-entity-User-b72f43bd-3311-4f61-8860-f7fd9c3ffc94-attr-9-key" class="er entityLabel"/><rect height="22.091796875" width="46.78125" y="200.55078125" x="177.796875" class="er attributeBoxOdd"/><text style="dominant-baseline: middle; font-size: 10.2px;" transform="translate(182.796875,211.5966796875)" y="0" x="0" id="text-entity-User-b72f43bd-3311-4f61-8860-f7fd9c3ffc94-attr-9-comment" class="er entityLabel"/><rect height="22.091796875" width="53.671875" y="222.642578125" x="0" class="er attributeBoxEven"/><text style="dominant-baseline: middle; font-size: 10.2px;" transform="translate(5,233.6884765625)" y="0" x="0" id="text-entity-User-b72f43bd-3311-4f61-8860-f7fd9c3ffc94-attr-10-type" class="er entityLabel">String</text><rect height="22.091796875" width="102.5625" y="222.642578125" x="53.671875" class="er attributeBoxEven"/><text style="dominant-baseline: middle; font-size: 10.2px;" transform="translate(58.671875,233.6884765625)" y="0" x="0" id="text-entity-User-b72f43bd-3311-4f61-8860-f7fd9c3ffc94-attr-10-name" class="er entityLabel">resetToken</text><rect height="22.091796875" width="21.5625" y="222.642578125" x="156.234375" class="er attributeBoxEven"/><text style="dominant-baseline: middle; font-size: 10.2px;" transform="translate(161.234375,233.6884765625)" y="0" x="0" id="text-entity-User-b72f43bd-3311-4f61-8860-f7fd9c3ffc94-attr-10-key" class="er entityLabel"/><rect height="22.091796875" width="46.78125" y="222.642578125" x="177.796875" class="er attributeBoxEven"/><text style="dominant-baseline: middle; font-size: 10.2px;" transform="translate(182.796875,233.6884765625)" y="0" x="0" id="text-entity-User-b72f43bd-3311-4f61-8860-f7fd9c3ffc94-attr-10-comment" class="er entityLabel">nullable</text><rect height="22.091796875" width="53.671875" y="244.734375" x="0" class="er attributeBoxOdd"/><text style="dominant-baseline: middle; font-size: 10.2px;" transform="translate(5,255.7802734375)" y="0" x="0" id="text-entity-User-b72f43bd-3311-4f61-8860-f7fd9c3ffc94-attr-11-type" class="er entityLabel">DateTime</text><rect height="22.091796875" width="102.5625" y="244.734375" x="53.671875" class="er attributeBoxOdd"/><text style="dominant-baseline: middle; font-size: 10.2px;" transform="translate(58.671875,255.7802734375)" y="0" x="0" id="text-entity-User-b72f43bd-3311-4f61-8860-f7fd9c3ffc94-attr-11-name" class="er entityLabel">resetTokenExpiresAt</text><rect height="22.091796875" width="21.5625" y="244.734375" x="156.234375" class="er attributeBoxOdd"/><text style="dominant-baseline: middle; font-size: 10.2px;" transform="translate(161.234375,255.7802734375)" y="0" x="0" id="text-entity-User-b72f43bd-3311-4f61-8860-f7fd9c3ffc94-attr-11-key" class="er entityLabel"/><rect height="22.091796875" width="46.78125" y="244.734375" x="177.796875" class="er attributeBoxOdd"/><text style="dominant-baseline: middle; font-size: 10.2px;" transform="translate(182.796875,255.7802734375)" y="0" x="0" id="text-entity-User-b72f43bd-3311-4f61-8860-f7fd9c3ffc94-attr-11-comment" class="er entityLabel">nullable</text><rect height="22.091796875" width="53.671875" y="266.826171875" x="0" class="er attributeBoxEven"/><text style="dominant-baseline: middle; font-size: 10.2px;" transform="translate(5,277.8720703125)" y="0" x="0" id="text-entity-User-b72f43bd-3311-4f61-8860-f7fd9c3ffc94-attr-12-type" class="er entityLabel">DateTime</text><rect height="22.091796875" width="102.5625" y="266.826171875" x="53.671875" class="er attributeBoxEven"/><text style="dominant-baseline: middle; font-size: 10.2px;" transform="translate(58.671875,277.8720703125)" y="0" x="0" id="text-entity-User-b72f43bd-3311-4f61-8860-f7fd9c3ffc94-attr-12-name" class="er entityLabel">updatedAt</text><rect height="22.091796875" width="21.5625" y="266.826171875" x="156.234375" class="er attributeBoxEven"/><text style="dominant-baseline: middle; font-size: 10.2px;" transform="translate(161.234375,277.8720703125)" y="0" x="0" id="text-entity-User-b72f43bd-3311-4f61-8860-f7fd9c3ffc94-attr-12-key" class="er entityLabel"/><rect height="22.091796875" width="46.78125" y="266.826171875" x="177.796875" class="er attributeBoxEven"/><text style="dominant-baseline: middle; font-size: 10.2px;" transform="translate(182.796875,277.8720703125)" y="0" x="0" id="text-entity-User-b72f43bd-3311-4f61-8860-f7fd9c3ffc94-attr-12-comment" class="er entityLabel"/><rect height="22" width="53.671875" y="288.91796875" x="0" class="er attributeBoxOdd"/><text style="dominant-baseline: middle; font-size: 10.2px;" transform="translate(5,299.91796875)" y="0" x="0" id="text-entity-User-b72f43bd-3311-4f61-8860-f7fd9c3ffc94-attr-13-type" class="er entityLabel">DateTime</text><rect height="22" width="102.5625" y="288.91796875" x="53.671875" class="er attributeBoxOdd"/><text style="dominant-baseline: middle; font-size: 10.2px;" transform="translate(58.671875,299.91796875)" y="0" x="0" id="text-entity-User-b72f43bd-3311-4f61-8860-f7fd9c3ffc94-attr-13-name" class="er entityLabel">createdAt</text><rect height="22" width="21.5625" y="288.91796875" x="156.234375" class="er attributeBoxOdd"/><text style="dominant-baseline: middle; font-size: 10.2px;" transform="translate(161.234375,299.91796875)" y="0" x="0" id="text-entity-User-b72f43bd-3311-4f61-8860-f7fd9c3ffc94-attr-13-key" class="er entityLabel"/><rect height="22" width="46.78125" y="288.91796875" x="177.796875" class="er attributeBoxOdd"/><text style="dominant-baseline: middle; font-size: 10.2px;" transform="translate(182.796875,299.91796875)" y="0" x="0" id="text-entity-User-b72f43bd-3311-4f61-8860-f7fd9c3ffc94-attr-13-comment" class="er entityLabel"/><rect height="22.091796875" width="53.671875" y="310.91796875" x="0" class="er attributeBoxEven"/><text style="dominant-baseline: middle; font-size: 10.2px;" transform="translate(5,321.9638671875)" y="0" x="0" id="text-entity-User-b72f43bd-3311-4f61-8860-f7fd9c3ffc94-attr-14-type" class="er entityLabel">String</text><rect height="22.091796875" width="102.5625" y="310.91796875" x="53.671875" class="er attributeBoxEven"/><text style="dominant-baseline: middle; font-size: 10.2px;" transform="translate(58.671875,321.9638671875)" y="0" x="0" id="text-entity-User-b72f43bd-3311-4f61-8860-f7fd9c3ffc94-attr-14-name" class="er entityLabel">verifyToken</text><rect height="22.091796875" width="21.5625" y="310.91796875" x="156.234375" class="er attributeBoxEven"/><text style="dominant-baseline: middle; font-size: 10.2px;" transform="translate(161.234375,321.9638671875)" y="0" x="0" id="text-entity-User-b72f43bd-3311-4f61-8860-f7fd9c3ffc94-attr-14-key" class="er entityLabel"/><rect height="22.091796875" width="46.78125" y="310.91796875" x="177.796875" class="er attributeBoxEven"/><text style="dominant-baseline: middle; font-size: 10.2px;" transform="translate(182.796875,321.9638671875)" y="0" x="0" id="text-entity-User-b72f43bd-3311-4f61-8860-f7fd9c3ffc94-attr-14-comment" class="er entityLabel">nullable</text></g><g transform="translate(175.78125,221.275390625 )" id="entity-Membership-9d0c9e95-352b-40e1-9e46-e6492a0ef5f5"><rect height="90.275390625" width="100.0625" y="0" x="0" class="er entityBox"/><text style="dominant-baseline: middle; text-anchor: middle; font-size: 12px;" transform="translate(50.03125,12)" y="0" x="0" id="text-entity-Membership-9d0c9e95-352b-40e1-9e46-e6492a0ef5f5" class="er entityLabel">Membership</text><rect height="22.091796875" width="36.53125" y="24" x="0" class="er attributeBoxOdd"/><text style="dominant-baseline: middle; font-size: 10.2px;" transform="translate(5,35.0458984375)" y="0" x="0" id="text-entity-Membership-9d0c9e95-352b-40e1-9e46-e6492a0ef5f5-attr-1-type" class="er entityLabel">String</text><rect height="22.091796875" width="41.96875" y="24" x="36.53125" class="er attributeBoxOdd"/><text style="dominant-baseline: middle; font-size: 10.2px;" transform="translate(41.53125,35.0458984375)" y="0" x="0" id="text-entity-Membership-9d0c9e95-352b-40e1-9e46-e6492a0ef5f5-attr-1-name" class="er entityLabel">id</text><rect height="22.091796875" width="21.5625" y="24" x="78.5" class="er attributeBoxOdd"/><text style="dominant-baseline: middle; font-size: 10.2px;" transform="translate(83.5,35.0458984375)" y="0" x="0" id="text-entity-Membership-9d0c9e95-352b-40e1-9e46-e6492a0ef5f5-attr-1-key" class="er entityLabel">PK</text><rect height="22.091796875" width="36.53125" y="46.091796875" x="0" class="er attributeBoxEven"/><text style="dominant-baseline: middle; font-size: 10.2px;" transform="translate(5,57.1376953125)" y="0" x="0" id="text-entity-Membership-9d0c9e95-352b-40e1-9e46-e6492a0ef5f5-attr-2-type" class="er entityLabel">String</text><rect height="22.091796875" width="41.96875" y="46.091796875" x="36.53125" class="er attributeBoxEven"/><text style="dominant-baseline: middle; font-size: 10.2px;" transform="translate(41.53125,57.1376953125)" y="0" x="0" id="text-entity-Membership-9d0c9e95-352b-40e1-9e46-e6492a0ef5f5-attr-2-name" class="er entityLabel">userId</text><rect height="22.091796875" width="21.5625" y="46.091796875" x="78.5" class="er attributeBoxEven"/><text style="dominant-baseline: middle; font-size: 10.2px;" transform="translate(83.5,57.1376953125)" y="0" x="0" id="text-entity-Membership-9d0c9e95-352b-40e1-9e46-e6492a0ef5f5-attr-2-key" class="er entityLabel"/><rect height="22.091796875" width="36.53125" y="68.18359375" x="0" class="er attributeBoxOdd"/><text style="dominant-baseline: middle; font-size: 10.2px;" transform="translate(5,79.2294921875)" y="0" x="0" id="text-entity-Membership-9d0c9e95-352b-40e1-9e46-e6492a0ef5f5-attr-3-type" class="er entityLabel">String</text><rect height="22.091796875" width="41.96875" y="68.18359375" x="36.53125" class="er attributeBoxOdd"/><text style="dominant-baseline: middle; font-size: 10.2px;" transform="translate(41.53125,79.2294921875)" y="0" x="0" id="text-entity-Membership-9d0c9e95-352b-40e1-9e46-e6492a0ef5f5-attr-3-name" class="er entityLabel">teamId</text><rect height="22.091796875" width="21.5625" y="68.18359375" x="78.5" class="er attributeBoxOdd"/><text style="dominant-baseline: middle; font-size: 10.2px;" transform="translate(83.5,79.2294921875)" y="0" x="0" id="text-entity-Membership-9d0c9e95-352b-40e1-9e46-e6492a0ef5f5-attr-3-key" class="er entityLabel"/></g><g transform="translate(20,521.91796875 )" id="entity-Team-012f2c4f-8c84-4a01-a41e-99b5fa00d5c9"><rect height="134.275390625" width="132.890625" y="0" x="0" class="er entityBox"/><text style="dominant-baseline: middle; text-anchor: middle; font-size: 12px;" transform="translate(66.4453125,12)" y="0" x="0" id="text-entity-Team-012f2c4f-8c84-4a01-a41e-99b5fa00d5c9" class="er entityLabel">Team</text><rect height="22.091796875" width="53.671875" y="24" x="0" class="er attributeBoxOdd"/><text style="dominant-baseline: middle; font-size: 10.2px;" transform="translate(5,35.0458984375)" y="0" x="0" id="text-entity-Team-012f2c4f-8c84-4a01-a41e-99b5fa00d5c9-attr-1-type" class="er entityLabel">String</text><rect height="22.091796875" width="57.65625" y="24" x="53.671875" class="er attributeBoxOdd"/><text style="dominant-baseline: middle; font-size: 10.2px;" transform="translate(58.671875,35.0458984375)" y="0" x="0" id="text-entity-Team-012f2c4f-8c84-4a01-a41e-99b5fa00d5c9-attr-1-name" class="er entityLabel">id</text><rect height="22.091796875" width="21.5625" y="24" x="111.328125" class="er attributeBoxOdd"/><text style="dominant-baseline: middle; font-size: 10.2px;" transform="translate(116.328125,35.0458984375)" y="0" x="0" id="text-entity-Team-012f2c4f-8c84-4a01-a41e-99b5fa00d5c9-attr-1-key" class="er entityLabel">PK</text><rect height="22.091796875" width="53.671875" y="46.091796875" x="0" class="er attributeBoxEven"/><text style="dominant-baseline: middle; font-size: 10.2px;" transform="translate(5,57.1376953125)" y="0" x="0" id="text-entity-Team-012f2c4f-8c84-4a01-a41e-99b5fa00d5c9-attr-2-type" class="er entityLabel">String</text><rect height="22.091796875" width="57.65625" y="46.091796875" x="53.671875" class="er attributeBoxEven"/><text style="dominant-baseline: middle; font-size: 10.2px;" transform="translate(58.671875,57.1376953125)" y="0" x="0" id="text-entity-Team-012f2c4f-8c84-4a01-a41e-99b5fa00d5c9-attr-2-name" class="er entityLabel">name</text><rect height="22.091796875" width="21.5625" y="46.091796875" x="111.328125" class="er attributeBoxEven"/><text style="dominant-baseline: middle; font-size: 10.2px;" transform="translate(116.328125,57.1376953125)" y="0" x="0" id="text-entity-Team-012f2c4f-8c84-4a01-a41e-99b5fa00d5c9-attr-2-key" class="er entityLabel"/><rect height="22" width="53.671875" y="68.18359375" x="0" class="er attributeBoxOdd"/><text style="dominant-baseline: middle; font-size: 10.2px;" transform="translate(5,79.18359375)" y="0" x="0" id="text-entity-Team-012f2c4f-8c84-4a01-a41e-99b5fa00d5c9-attr-3-type" class="er entityLabel">Boolean</text><rect height="22" width="57.65625" y="68.18359375" x="53.671875" class="er attributeBoxOdd"/><text style="dominant-baseline: middle; font-size: 10.2px;" transform="translate(58.671875,79.18359375)" y="0" x="0" id="text-entity-Team-012f2c4f-8c84-4a01-a41e-99b5fa00d5c9-attr-3-name" class="er entityLabel">active</text><rect height="22" width="21.5625" y="68.18359375" x="111.328125" class="er attributeBoxOdd"/><text style="dominant-baseline: middle; font-size: 10.2px;" transform="translate(116.328125,79.18359375)" y="0" x="0" id="text-entity-Team-012f2c4f-8c84-4a01-a41e-99b5fa00d5c9-attr-3-key" class="er entityLabel"/><rect height="22.091796875" width="53.671875" y="90.18359375" x="0" class="er attributeBoxEven"/><text style="dominant-baseline: middle; font-size: 10.2px;" transform="translate(5,101.2294921875)" y="0" x="0" id="text-entity-Team-012f2c4f-8c84-4a01-a41e-99b5fa00d5c9-attr-4-type" class="er entityLabel">DateTime</text><rect height="22.091796875" width="57.65625" y="90.18359375" x="53.671875" class="er attributeBoxEven"/><text style="dominant-baseline: middle; font-size: 10.2px;" transform="translate(58.671875,101.2294921875)" y="0" x="0" id="text-entity-Team-012f2c4f-8c84-4a01-a41e-99b5fa00d5c9-attr-4-name" class="er entityLabel">updatedAt</text><rect height="22.091796875" width="21.5625" y="90.18359375" x="111.328125" class="er attributeBoxEven"/><text style="dominant-baseline: middle; font-size: 10.2px;" transform="translate(116.328125,101.2294921875)" y="0" x="0" id="text-entity-Team-012f2c4f-8c84-4a01-a41e-99b5fa00d5c9-attr-4-key" class="er entityLabel"/><rect height="22" width="53.671875" y="112.275390625" x="0" class="er attributeBoxOdd"/><text style="dominant-baseline: middle; font-size: 10.2px;" transform="translate(5,123.275390625)" y="0" x="0" id="text-entity-Team-012f2c4f-8c84-4a01-a41e-99b5fa00d5c9-attr-5-type" class="er entityLabel">DateTime</text><rect height="22" width="57.65625" y="112.275390625" x="53.671875" class="er attributeBoxOdd"/><text style="dominant-baseline: middle; font-size: 10.2px;" transform="translate(58.671875,123.275390625)" y="0" x="0" id="text-entity-Team-012f2c4f-8c84-4a01-a41e-99b5fa00d5c9-attr-5-name" class="er entityLabel">createdAt</text><rect height="22" width="21.5625" y="112.275390625" x="111.328125" class="er attributeBoxOdd"/><text style="dominant-baseline: middle; font-size: 10.2px;" transform="translate(116.328125,123.275390625)" y="0" x="0" id="text-entity-Team-012f2c4f-8c84-4a01-a41e-99b5fa00d5c9-attr-5-key" class="er entityLabel"/></g><g transform="translate(267.73828125,20 )" id="entity-MembershipRole-c7a5e9e3-0a6d-4e63-9463-8be425d609a0"><rect height="90.275390625" width="132.625" y="0" x="0" class="er entityBox"/><text style="dominant-baseline: middle; text-anchor: middle; font-size: 12px;" transform="translate(66.3125,12)" y="0" x="0" id="text-entity-MembershipRole-c7a5e9e3-0a6d-4e63-9463-8be425d609a0" class="er entityLabel">MembershipRole</text><rect height="22.091796875" width="36.53125" y="24" x="0" class="er attributeBoxOdd"/><text style="dominant-baseline: middle; font-size: 10.2px;" transform="translate(5,35.0458984375)" y="0" x="0" id="text-entity-MembershipRole-c7a5e9e3-0a6d-4e63-9463-8be425d609a0-attr-1-type" class="er entityLabel">String</text><rect height="22.091796875" width="74.53125" y="24" x="36.53125" class="er attributeBoxOdd"/><text style="dominant-baseline: middle; font-size: 10.2px;" transform="translate(41.53125,35.0458984375)" y="0" x="0" id="text-entity-MembershipRole-c7a5e9e3-0a6d-4e63-9463-8be425d609a0-attr-1-name" class="er entityLabel">id</text><rect height="22.091796875" width="21.5625" y="24" x="111.0625" class="er attributeBoxOdd"/><text style="dominant-baseline: middle; font-size: 10.2px;" transform="translate(116.0625,35.0458984375)" y="0" x="0" id="text-entity-MembershipRole-c7a5e9e3-0a6d-4e63-9463-8be425d609a0-attr-1-key" class="er entityLabel">PK</text><rect height="22.091796875" width="36.53125" y="46.091796875" x="0" class="er attributeBoxEven"/><text style="dominant-baseline: middle; font-size: 10.2px;" transform="translate(5,57.1376953125)" y="0" x="0" id="text-entity-MembershipRole-c7a5e9e3-0a6d-4e63-9463-8be425d609a0-attr-2-type" class="er entityLabel">String</text><rect height="22.091796875" width="74.53125" y="46.091796875" x="36.53125" class="er attributeBoxEven"/><text style="dominant-baseline: middle; font-size: 10.2px;" transform="translate(41.53125,57.1376953125)" y="0" x="0" id="text-entity-MembershipRole-c7a5e9e3-0a6d-4e63-9463-8be425d609a0-attr-2-name" class="er entityLabel">membershipId</text><rect height="22.091796875" width="21.5625" y="46.091796875" x="111.0625" class="er attributeBoxEven"/><text style="dominant-baseline: middle; font-size: 10.2px;" transform="translate(116.0625,57.1376953125)" y="0" x="0" id="text-entity-MembershipRole-c7a5e9e3-0a6d-4e63-9463-8be425d609a0-attr-2-key" class="er entityLabel"/><rect height="22.091796875" width="36.53125" y="68.18359375" x="0" class="er attributeBoxOdd"/><text style="dominant-baseline: middle; font-size: 10.2px;" transform="translate(5,79.2294921875)" y="0" x="0" id="text-entity-MembershipRole-c7a5e9e3-0a6d-4e63-9463-8be425d609a0-attr-3-type" class="er entityLabel">String</text><rect height="22.091796875" width="74.53125" y="68.18359375" x="36.53125" class="er attributeBoxOdd"/><text style="dominant-baseline: middle; font-size: 10.2px;" transform="translate(41.53125,79.2294921875)" y="0" x="0" id="text-entity-MembershipRole-c7a5e9e3-0a6d-4e63-9463-8be425d609a0-attr-3-name" class="er entityLabel">roleId</text><rect height="22.091796875" width="21.5625" y="68.18359375" x="111.0625" class="er attributeBoxOdd"/><text style="dominant-baseline: middle; font-size: 10.2px;" transform="translate(116.0625,79.2294921875)" y="0" x="0" id="text-entity-MembershipRole-c7a5e9e3-0a6d-4e63-9463-8be425d609a0-attr-3-key" class="er entityLabel"/></g><g transform="translate(375.84375,210.275390625 )" id="entity-Role-0a989e06-56c0-414c-9206-df80648ae782"><rect height="112.275390625" width="132.890625" y="0" x="0" class="er entityBox"/><text style="dominant-baseline: middle; text-anchor: middle; font-size: 12px;" transform="translate(66.4453125,12)" y="0" x="0" id="text-entity-Role-0a989e06-56c0-414c-9206-df80648ae782" class="er entityLabel">Role</text><rect height="22.091796875" width="53.671875" y="24" x="0" class="er attributeBoxOdd"/><text style="dominant-baseline: middle; font-size: 10.2px;" transform="translate(5,35.0458984375)" y="0" x="0" id="text-entity-Role-0a989e06-56c0-414c-9206-df80648ae782-attr-1-type" class="er entityLabel">String</text><rect height="22.091796875" width="57.65625" y="24" x="53.671875" class="er attributeBoxOdd"/><text style="dominant-baseline: middle; font-size: 10.2px;" transform="translate(58.671875,35.0458984375)" y="0" x="0" id="text-entity-Role-0a989e06-56c0-414c-9206-df80648ae782-attr-1-name" class="er entityLabel">id</text><rect height="22.091796875" width="21.5625" y="24" x="111.328125" class="er attributeBoxOdd"/><text style="dominant-baseline: middle; font-size: 10.2px;" transform="translate(116.328125,35.0458984375)" y="0" x="0" id="text-entity-Role-0a989e06-56c0-414c-9206-df80648ae782-attr-1-key" class="er entityLabel">PK</text><rect height="22.091796875" width="53.671875" y="46.091796875" x="0" class="er attributeBoxEven"/><text style="dominant-baseline: middle; font-size: 10.2px;" transform="translate(5,57.1376953125)" y="0" x="0" id="text-entity-Role-0a989e06-56c0-414c-9206-df80648ae782-attr-2-type" class="er entityLabel">String</text><rect height="22.091796875" width="57.65625" y="46.091796875" x="53.671875" class="er attributeBoxEven"/><text style="dominant-baseline: middle; font-size: 10.2px;" transform="translate(58.671875,57.1376953125)" y="0" x="0" id="text-entity-Role-0a989e06-56c0-414c-9206-df80648ae782-attr-2-name" class="er entityLabel">name</text><rect height="22.091796875" width="21.5625" y="46.091796875" x="111.328125" class="er attributeBoxEven"/><text style="dominant-baseline: middle; font-size: 10.2px;" transform="translate(116.328125,57.1376953125)" y="0" x="0" id="text-entity-Role-0a989e06-56c0-414c-9206-df80648ae782-attr-2-key" class="er entityLabel"/><rect height="22" width="53.671875" y="68.18359375" x="0" class="er attributeBoxOdd"/><text style="dominant-baseline: middle; font-size: 10.2px;" transform="translate(5,79.18359375)" y="0" x="0" id="text-entity-Role-0a989e06-56c0-414c-9206-df80648ae782-attr-3-type" class="er entityLabel">DateTime</text><rect height="22" width="57.65625" y="68.18359375" x="53.671875" class="er attributeBoxOdd"/><text style="dominant-baseline: middle; font-size: 10.2px;" transform="translate(58.671875,79.18359375)" y="0" x="0" id="text-entity-Role-0a989e06-56c0-414c-9206-df80648ae782-attr-3-name" class="er entityLabel">createdAt</text><rect height="22" width="21.5625" y="68.18359375" x="111.328125" class="er attributeBoxOdd"/><text style="dominant-baseline: middle; font-size: 10.2px;" transform="translate(116.328125,79.18359375)" y="0" x="0" id="text-entity-Role-0a989e06-56c0-414c-9206-df80648ae782-attr-3-key" class="er entityLabel"/><rect height="22.091796875" width="53.671875" y="90.18359375" x="0" class="er attributeBoxEven"/><text style="dominant-baseline: middle; font-size: 10.2px;" transform="translate(5,101.2294921875)" y="0" x="0" id="text-entity-Role-0a989e06-56c0-414c-9206-df80648ae782-attr-4-type" class="er entityLabel">DateTime</text><rect height="22.091796875" width="57.65625" y="90.18359375" x="53.671875" class="er attributeBoxEven"/><text style="dominant-baseline: middle; font-size: 10.2px;" transform="translate(58.671875,101.2294921875)" y="0" x="0" id="text-entity-Role-0a989e06-56c0-414c-9206-df80648ae782-attr-4-name" class="er entityLabel">updatedAt</text><rect height="22.091796875" width="21.5625" y="90.18359375" x="111.328125" class="er attributeBoxEven"/><text style="dominant-baseline: middle; font-size: 10.2px;" transform="translate(116.328125,101.2294921875)" y="0" x="0" id="text-entity-Role-0a989e06-56c0-414c-9206-df80648ae782-attr-4-key" class="er entityLabel"/></g><rect height="14" width="27.578125" y="391.1158447265625" x="83.27163696289062" class="er relationshipLabelBox"/><text style="text-anchor: middle; dominant-baseline: middle; font-size: 12px;" y="398.1158447265625" x="97.06069946289062" id="rel1" class="er relationshipLabel">team</text><rect height="14" width="22.625" y="346.6754150390625" x="324.697265625" class="er relationshipLabelBox"/><text style="text-anchor: middle; dominant-baseline: middle; font-size: 12px;" y="353.6754150390625" x="336.009765625" id="rel2" class="er relationshipLabel">user</text><rect height="14" width="65.890625" y="150.69993591308594" x="204.80026245117188" class="er relationshipLabelBox"/><text style="text-anchor: middle; dominant-baseline: middle; font-size: 12px;" y="157.69993591308594" x="237.74557495117188" id="rel3" class="er relationshipLabel">membership</text><rect height="14" width="21.1875" y="145.88497924804688" x="417.4308776855469" class="er relationshipLabelBox"/><text style="text-anchor: middle; dominant-baseline: middle; font-size: 12px;" y="152.88497924804688" x="428.0246276855469" id="rel4" class="er relationshipLabel">role</text></svg>