<svg aria-roledescription="er" viewBox="0 0 528.6953125 774" style="max-width: 528.695px; background-color: white;" xmlns:xlink="http://www.w3.org/1999/xlink" xmlns="http://www.w3.org/2000/svg" width="100%" id="mermaid-0"><style>#mermaid-0{font-family:"trebuchet ms",verdana,arial,sans-serif;font-size:16px;fill:#000000;}#mermaid-0 .error-icon{fill:#552222;}#mermaid-0 .error-text{fill:#552222;stroke:#552222;}#mermaid-0 .edge-thickness-normal{stroke-width:2px;}#mermaid-0 .edge-thickness-thick{stroke-width:3.5px;}#mermaid-0 .edge-pattern-solid{stroke-dasharray:0;}#mermaid-0 .edge-pattern-dashed{stroke-dasharray:3;}#mermaid-0 .edge-pattern-dotted{stroke-dasharray:2;}#mermaid-0 .marker{fill:#666;stroke:#666;}#mermaid-0 .marker.cross{stroke:#666;}#mermaid-0 svg{font-family:"trebuchet ms",verdana,arial,sans-serif;font-size:16px;}#mermaid-0 .entityBox{fill:#eee;stroke:#999;}#mermaid-0 .attributeBoxOdd{fill:#ffffff;stroke:#999;}#mermaid-0 .attributeBoxEven{fill:#f2f2f2;stroke:#999;}#mermaid-0 .relationshipLabelBox{fill:hsl(-160, 0%, 93.3333333333%);opacity:0.7;background-color:hsl(-160, 0%, 93.3333333333%);}#mermaid-0 .relationshipLabelBox rect{opacity:0.5;}#mermaid-0 .relationshipLine{stroke:#666;}#mermaid-0 .entityTitleText{text-anchor:middle;font-size:18px;fill:#000000;}#mermaid-0 :root{--mermaid-font-family:"trebuchet ms",verdana,arial,sans-serif;}</style><g/><defs><marker orient="auto" markerHeight="18" markerWidth="18" refY="9" refX="0" id="ONLY_ONE_START"><path d="M9,0 L9,18 M15,0 L15,18" fill="none" stroke="gray"/></marker></defs><defs><marker orient="auto" markerHeight="18" markerWidth="18" refY="9" refX="18" id="ONLY_ONE_END"><path d="M3,0 L3,18 M9,0 L9,18" fill="none" stroke="gray"/></marker></defs><defs><marker orient="auto" markerHeight="18" markerWidth="30" refY="9" refX="0" id="ZERO_OR_ONE_START"><circle r="6" cy="9" cx="21" fill="white" stroke="gray"/><path d="M9,0 L9,18" fill="none" stroke="gray"/></marker></defs><defs><marker orient="auto" markerHeight="18" markerWidth="30" refY="9" refX="30" id="ZERO_OR_ONE_END"><circle r="6" cy="9" cx="9" fill="white" stroke="gray"/><path d="M21,0 L21,18" fill="none" stroke="gray"/></marker></defs><defs><marker orient="auto" markerHeight="36" markerWidth="45" refY="18" refX="18" id="ONE_OR_MORE_START"><path d="M0,18 Q 18,0 36,18 Q 18,36 0,18 M42,9 L42,27" fill="none" stroke="gray"/></marker></defs><defs><marker orient="auto" markerHeight="36" markerWidth="45" refY="18" refX="27" id="ONE_OR_MORE_END"><path d="M3,9 L3,27 M9,18 Q27,0 45,18 Q27,36 9,18" fill="none" stroke="gray"/></marker></defs><defs><marker orient="auto" markerHeight="36" markerWidth="57" refY="18" refX="18" id="ZERO_OR_MORE_START"><circle r="6" cy="18" cx="48" fill="white" stroke="gray"/><path d="M0,18 Q18,0 36,18 Q18,36 0,18" fill="none" stroke="gray"/></marker></defs><defs><marker orient="auto" markerHeight="36" markerWidth="57" refY="18" refX="39" id="ZERO_OR_MORE_END"><circle r="6" cy="18" cx="9" fill="white" stroke="gray"/><path d="M21,18 Q39,0 57,18 Q39,36 21,18" fill="none" stroke="gray"/></marker></defs><path style="stroke: gray; fill: none;" marker-start="url(#ZERO_OR_MORE_START)" marker-end="url(#ONLY_ONE_END)" d="M175.7734375,304.048996524274L160.88411458333334,315.37416377022834C145.99479166666666,326.69933101618267,116.21614583333333,349.3496655080914,101.32682291666667,385.50816608737904C86.4375,421.6666666666667,86.4375,471.3333333333333,86.4375,496.1666666666667L86.4375,521" class="er relationshipLine"/><path style="stroke: gray; fill: none;" marker-start="url(#ZERO_OR_MORE_START)" marker-end="url(#ONLY_ONE_END)" d="M275.8203125,304.048996524274L290.7096354166667,315.37416377022834C305.5989583333333,326.69933101618267,335.3776041666667,349.3496655080914,350.2669270833333,369.00816608737904C365.15625,388.6666666666667,365.15625,405.3333333333333,365.15625,413.6666666666667L365.15625,422" class="er relationshipLine"/><path style="stroke: gray; fill: none;" marker-start="url(#ZERO_OR_MORE_START)" marker-end="url(#ONLY_ONE_END)" d="M282.7602796052632,110L273.2663788377193,118.33333333333333C263.77247807017545,126.66666666666667,244.7846765350877,143.33333333333334,235.29077576754386,161.83333333333334C225.796875,180.33333333333334,225.796875,200.66666666666666,225.796875,210.83333333333334L225.796875,221" class="er relationshipLine"/><path style="stroke: gray; fill: none;" marker-start="url(#ZERO_OR_MORE_START)" marker-end="url(#ONLY_ONE_END)" d="M385.2944078947368,110L394.7883086622807,118.33333333333333C404.2822094298246,126.66666666666667,423.2700109649123,143.33333333333334,432.7639117324561,160C442.2578125,176.66666666666666,442.2578125,193.33333333333334,442.2578125,201.66666666666666L442.2578125,210" class="er relationshipLine"/><g transform="translate(252.875,422 )" id="entity-User-022af2d1-79e6-4f58-905c-95b8186fd308"><rect height="332" width="224.5625" y="0" x="0" class="er entityBox"/><text style="dominant-baseline: middle; text-anchor: middle; font-size: 12px;" transform="translate(112.28125,12)" y="0" x="0" id="text-entity-User-022af2d1-79e6-4f58-905c-95b8186fd308" class="er entityLabel">User</text><rect height="22" width="53.6640625" y="24" x="0" class="er attributeBoxOdd"/><text style="dominant-baseline: middle; font-size: 10.2px;" transform="translate(5,35)" y="0" x="0" id="text-entity-User-022af2d1-79e6-4f58-905c-95b8186fd308-attr-1-type" class="er entityLabel">String</text><rect height="22" width="102.5546875" y="24" x="53.6640625" class="er attributeBoxOdd"/><text style="dominant-baseline: middle; font-size: 10.2px;" transform="translate(58.6640625,35)" y="0" x="0" id="text-entity-User-022af2d1-79e6-4f58-905c-95b8186fd308-attr-1-name" class="er entityLabel">id</text><rect height="22" width="21.5625" y="24" x="156.21875" class="er attributeBoxOdd"/><text style="dominant-baseline: middle; font-size: 10.2px;" transform="translate(161.21875,35)" y="0" x="0" id="text-entity-User-022af2d1-79e6-4f58-905c-95b8186fd308-attr-1-key" class="er entityLabel">PK</text><rect height="22" width="46.78125" y="24" x="177.78125" class="er attributeBoxOdd"/><text style="dominant-baseline: middle; font-size: 10.2px;" transform="translate(182.78125,35)" y="0" x="0" id="text-entity-User-022af2d1-79e6-4f58-905c-95b8186fd308-attr-1-comment" class="er entityLabel"/><rect height="22" width="53.6640625" y="46" x="0" class="er attributeBoxEven"/><text style="dominant-baseline: middle; font-size: 10.2px;" transform="translate(5,57)" y="0" x="0" id="text-entity-User-022af2d1-79e6-4f58-905c-95b8186fd308-attr-2-type" class="er entityLabel">String</text><rect height="22" width="102.5546875" y="46" x="53.6640625" class="er attributeBoxEven"/><text style="dominant-baseline: middle; font-size: 10.2px;" transform="translate(58.6640625,57)" y="0" x="0" id="text-entity-User-022af2d1-79e6-4f58-905c-95b8186fd308-attr-2-name" class="er entityLabel">email</text><rect height="22" width="21.5625" y="46" x="156.21875" class="er attributeBoxEven"/><text style="dominant-baseline: middle; font-size: 10.2px;" transform="translate(161.21875,57)" y="0" x="0" id="text-entity-User-022af2d1-79e6-4f58-905c-95b8186fd308-attr-2-key" class="er entityLabel"/><rect height="22" width="46.78125" y="46" x="177.78125" class="er attributeBoxEven"/><text style="dominant-baseline: middle; font-size: 10.2px;" transform="translate(182.78125,57)" y="0" x="0" id="text-entity-User-022af2d1-79e6-4f58-905c-95b8186fd308-attr-2-comment" class="er entityLabel"/><rect height="22" width="53.6640625" y="68" x="0" class="er attributeBoxOdd"/><text style="dominant-baseline: middle; font-size: 10.2px;" transform="translate(5,79)" y="0" x="0" id="text-entity-User-022af2d1-79e6-4f58-905c-95b8186fd308-attr-3-type" class="er entityLabel">String</text><rect height="22" width="102.5546875" y="68" x="53.6640625" class="er attributeBoxOdd"/><text style="dominant-baseline: middle; font-size: 10.2px;" transform="translate(58.6640625,79)" y="0" x="0" id="text-entity-User-022af2d1-79e6-4f58-905c-95b8186fd308-attr-3-name" class="er entityLabel">name</text><rect height="22" width="21.5625" y="68" x="156.21875" class="er attributeBoxOdd"/><text style="dominant-baseline: middle; font-size: 10.2px;" transform="translate(161.21875,79)" y="0" x="0" id="text-entity-User-022af2d1-79e6-4f58-905c-95b8186fd308-attr-3-key" class="er entityLabel"/><rect height="22" width="46.78125" y="68" x="177.78125" class="er attributeBoxOdd"/><text style="dominant-baseline: middle; font-size: 10.2px;" transform="translate(182.78125,79)" y="0" x="0" id="text-entity-User-022af2d1-79e6-4f58-905c-95b8186fd308-attr-3-comment" class="er entityLabel">nullable</text><rect height="22" width="53.6640625" y="90" x="0" class="er attributeBoxEven"/><text style="dominant-baseline: middle; font-size: 10.2px;" transform="translate(5,101)" y="0" x="0" id="text-entity-User-022af2d1-79e6-4f58-905c-95b8186fd308-attr-4-type" class="er entityLabel">String</text><rect height="22" width="102.5546875" y="90" x="53.6640625" class="er attributeBoxEven"/><text style="dominant-baseline: middle; font-size: 10.2px;" transform="translate(58.6640625,101)" y="0" x="0" id="text-entity-User-022af2d1-79e6-4f58-905c-95b8186fd308-attr-4-name" class="er entityLabel">nickname</text><rect height="22" width="21.5625" y="90" x="156.21875" class="er attributeBoxEven"/><text style="dominant-baseline: middle; font-size: 10.2px;" transform="translate(161.21875,101)" y="0" x="0" id="text-entity-User-022af2d1-79e6-4f58-905c-95b8186fd308-attr-4-key" class="er entityLabel"/><rect height="22" width="46.78125" y="90" x="177.78125" class="er attributeBoxEven"/><text style="dominant-baseline: middle; font-size: 10.2px;" transform="translate(182.78125,101)" y="0" x="0" id="text-entity-User-022af2d1-79e6-4f58-905c-95b8186fd308-attr-4-comment" class="er entityLabel">nullable</text><rect height="22" width="53.6640625" y="112" x="0" class="er attributeBoxOdd"/><text style="dominant-baseline: middle; font-size: 10.2px;" transform="translate(5,123)" y="0" x="0" id="text-entity-User-022af2d1-79e6-4f58-905c-95b8186fd308-attr-5-type" class="er entityLabel">String</text><rect height="22" width="102.5546875" y="112" x="53.6640625" class="er attributeBoxOdd"/><text style="dominant-baseline: middle; font-size: 10.2px;" transform="translate(58.6640625,123)" y="0" x="0" id="text-entity-User-022af2d1-79e6-4f58-905c-95b8186fd308-attr-5-name" class="er entityLabel">pronouns</text><rect height="22" width="21.5625" y="112" x="156.21875" class="er attributeBoxOdd"/><text style="dominant-baseline: middle; font-size: 10.2px;" transform="translate(161.21875,123)" y="0" x="0" id="text-entity-User-022af2d1-79e6-4f58-905c-95b8186fd308-attr-5-key" class="er entityLabel"/><rect height="22" width="46.78125" y="112" x="177.78125" class="er attributeBoxOdd"/><text style="dominant-baseline: middle; font-size: 10.2px;" transform="translate(182.78125,123)" y="0" x="0" id="text-entity-User-022af2d1-79e6-4f58-905c-95b8186fd308-attr-5-comment" class="er entityLabel">nullable</text><rect height="22" width="53.6640625" y="134" x="0" class="er attributeBoxEven"/><text style="dominant-baseline: middle; font-size: 10.2px;" transform="translate(5,145)" y="0" x="0" id="text-entity-User-022af2d1-79e6-4f58-905c-95b8186fd308-attr-6-type" class="er entityLabel">Boolean</text><rect height="22" width="102.5546875" y="134" x="53.6640625" class="er attributeBoxEven"/><text style="dominant-baseline: middle; font-size: 10.2px;" transform="translate(58.6640625,145)" y="0" x="0" id="text-entity-User-022af2d1-79e6-4f58-905c-95b8186fd308-attr-6-name" class="er entityLabel">active</text><rect height="22" width="21.5625" y="134" x="156.21875" class="er attributeBoxEven"/><text style="dominant-baseline: middle; font-size: 10.2px;" transform="translate(161.21875,145)" y="0" x="0" id="text-entity-User-022af2d1-79e6-4f58-905c-95b8186fd308-attr-6-key" class="er entityLabel"/><rect height="22" width="46.78125" y="134" x="177.78125" class="er attributeBoxEven"/><text style="dominant-baseline: middle; font-size: 10.2px;" transform="translate(182.78125,145)" y="0" x="0" id="text-entity-User-022af2d1-79e6-4f58-905c-95b8186fd308-attr-6-comment" class="er entityLabel"/><rect height="22" width="53.6640625" y="156" x="0" class="er attributeBoxOdd"/><text style="dominant-baseline: middle; font-size: 10.2px;" transform="translate(5,167)" y="0" x="0" id="text-entity-User-022af2d1-79e6-4f58-905c-95b8186fd308-attr-7-type" class="er entityLabel">Boolean</text><rect height="22" width="102.5546875" y="156" x="53.6640625" class="er attributeBoxOdd"/><text style="dominant-baseline: middle; font-size: 10.2px;" transform="translate(58.6640625,167)" y="0" x="0" id="text-entity-User-022af2d1-79e6-4f58-905c-95b8186fd308-attr-7-name" class="er entityLabel">admin</text><rect height="22" width="21.5625" y="156" x="156.21875" class="er attributeBoxOdd"/><text style="dominant-baseline: middle; font-size: 10.2px;" transform="translate(161.21875,167)" y="0" x="0" id="text-entity-User-022af2d1-79e6-4f58-905c-95b8186fd308-attr-7-key" class="er entityLabel"/><rect height="22" width="46.78125" y="156" x="177.78125" class="er attributeBoxOdd"/><text style="dominant-baseline: middle; font-size: 10.2px;" transform="translate(182.78125,167)" y="0" x="0" id="text-entity-User-022af2d1-79e6-4f58-905c-95b8186fd308-attr-7-comment" class="er entityLabel"/><rect height="22" width="53.6640625" y="178" x="0" class="er attributeBoxEven"/><text style="dominant-baseline: middle; font-size: 10.2px;" transform="translate(5,189)" y="0" x="0" id="text-entity-User-022af2d1-79e6-4f58-905c-95b8186fd308-attr-8-type" class="er entityLabel">String</text><rect height="22" width="102.5546875" y="178" x="53.6640625" class="er attributeBoxEven"/><text style="dominant-baseline: middle; font-size: 10.2px;" transform="translate(58.6640625,189)" y="0" x="0" id="text-entity-User-022af2d1-79e6-4f58-905c-95b8186fd308-attr-8-name" class="er entityLabel">hashedPassword</text><rect height="22" width="21.5625" y="178" x="156.21875" class="er attributeBoxEven"/><text style="dominant-baseline: middle; font-size: 10.2px;" transform="translate(161.21875,189)" y="0" x="0" id="text-entity-User-022af2d1-79e6-4f58-905c-95b8186fd308-attr-8-key" class="er entityLabel"/><rect height="22" width="46.78125" y="178" x="177.78125" class="er attributeBoxEven"/><text style="dominant-baseline: middle; font-size: 10.2px;" transform="translate(182.78125,189)" y="0" x="0" id="text-entity-User-022af2d1-79e6-4f58-905c-95b8186fd308-attr-8-comment" class="er entityLabel"/><rect height="22" width="53.6640625" y="200" x="0" class="er attributeBoxOdd"/><text style="dominant-baseline: middle; font-size: 10.2px;" transform="translate(5,211)" y="0" x="0" id="text-entity-User-022af2d1-79e6-4f58-905c-95b8186fd308-attr-9-type" class="er entityLabel">String</text><rect height="22" width="102.5546875" y="200" x="53.6640625" class="er attributeBoxOdd"/><text style="dominant-baseline: middle; font-size: 10.2px;" transform="translate(58.6640625,211)" y="0" x="0" id="text-entity-User-022af2d1-79e6-4f58-905c-95b8186fd308-attr-9-name" class="er entityLabel">salt</text><rect height="22" width="21.5625" y="200" x="156.21875" class="er attributeBoxOdd"/><text style="dominant-baseline: middle; font-size: 10.2px;" transform="translate(161.21875,211)" y="0" x="0" id="text-entity-User-022af2d1-79e6-4f58-905c-95b8186fd308-attr-9-key" class="er entityLabel"/><rect height="22" width="46.78125" y="200" x="177.78125" class="er attributeBoxOdd"/><text style="dominant-baseline: middle; font-size: 10.2px;" transform="translate(182.78125,211)" y="0" x="0" id="text-entity-User-022af2d1-79e6-4f58-905c-95b8186fd308-attr-9-comment" class="er entityLabel"/><rect height="22" width="53.6640625" y="222" x="0" class="er attributeBoxEven"/><text style="dominant-baseline: middle; font-size: 10.2px;" transform="translate(5,233)" y="0" x="0" id="text-entity-User-022af2d1-79e6-4f58-905c-95b8186fd308-attr-10-type" class="er entityLabel">String</text><rect height="22" width="102.5546875" y="222" x="53.6640625" class="er attributeBoxEven"/><text style="dominant-baseline: middle; font-size: 10.2px;" transform="translate(58.6640625,233)" y="0" x="0" id="text-entity-User-022af2d1-79e6-4f58-905c-95b8186fd308-attr-10-name" class="er entityLabel">resetToken</text><rect height="22" width="21.5625" y="222" x="156.21875" class="er attributeBoxEven"/><text style="dominant-baseline: middle; font-size: 10.2px;" transform="translate(161.21875,233)" y="0" x="0" id="text-entity-User-022af2d1-79e6-4f58-905c-95b8186fd308-attr-10-key" class="er entityLabel"/><rect height="22" width="46.78125" y="222" x="177.78125" class="er attributeBoxEven"/><text style="dominant-baseline: middle; font-size: 10.2px;" transform="translate(182.78125,233)" y="0" x="0" id="text-entity-User-022af2d1-79e6-4f58-905c-95b8186fd308-attr-10-comment" class="er entityLabel">nullable</text><rect height="22" width="53.6640625" y="244" x="0" class="er attributeBoxOdd"/><text style="dominant-baseline: middle; font-size: 10.2px;" transform="translate(5,255)" y="0" x="0" id="text-entity-User-022af2d1-79e6-4f58-905c-95b8186fd308-attr-11-type" class="er entityLabel">DateTime</text><rect height="22" width="102.5546875" y="244" x="53.6640625" class="er attributeBoxOdd"/><text style="dominant-baseline: middle; font-size: 10.2px;" transform="translate(58.6640625,255)" y="0" x="0" id="text-entity-User-022af2d1-79e6-4f58-905c-95b8186fd308-attr-11-name" class="er entityLabel">resetTokenExpiresAt</text><rect height="22" width="21.5625" y="244" x="156.21875" class="er attributeBoxOdd"/><text style="dominant-baseline: middle; font-size: 10.2px;" transform="translate(161.21875,255)" y="0" x="0" id="text-entity-User-022af2d1-79e6-4f58-905c-95b8186fd308-attr-11-key" class="er entityLabel"/><rect height="22" width="46.78125" y="244" x="177.78125" class="er attributeBoxOdd"/><text style="dominant-baseline: middle; font-size: 10.2px;" transform="translate(182.78125,255)" y="0" x="0" id="text-entity-User-022af2d1-79e6-4f58-905c-95b8186fd308-attr-11-comment" class="er entityLabel">nullable</text><rect height="22" width="53.6640625" y="266" x="0" class="er attributeBoxEven"/><text style="dominant-baseline: middle; font-size: 10.2px;" transform="translate(5,277)" y="0" x="0" id="text-entity-User-022af2d1-79e6-4f58-905c-95b8186fd308-attr-12-type" class="er entityLabel">DateTime</text><rect height="22" width="102.5546875" y="266" x="53.6640625" class="er attributeBoxEven"/><text style="dominant-baseline: middle; font-size: 10.2px;" transform="translate(58.6640625,277)" y="0" x="0" id="text-entity-User-022af2d1-79e6-4f58-905c-95b8186fd308-attr-12-name" class="er entityLabel">updatedAt</text><rect height="22" width="21.5625" y="266" x="156.21875" class="er attributeBoxEven"/><text style="dominant-baseline: middle; font-size: 10.2px;" transform="translate(161.21875,277)" y="0" x="0" id="text-entity-User-022af2d1-79e6-4f58-905c-95b8186fd308-attr-12-key" class="er entityLabel"/><rect height="22" width="46.78125" y="266" x="177.78125" class="er attributeBoxEven"/><text style="dominant-baseline: middle; font-size: 10.2px;" transform="translate(182.78125,277)" y="0" x="0" id="text-entity-User-022af2d1-79e6-4f58-905c-95b8186fd308-attr-12-comment" class="er entityLabel"/><rect height="22" width="53.6640625" y="288" x="0" class="er attributeBoxOdd"/><text style="dominant-baseline: middle; font-size: 10.2px;" transform="translate(5,299)" y="0" x="0" id="text-entity-User-022af2d1-79e6-4f58-905c-95b8186fd308-attr-13-type" class="er entityLabel">DateTime</text><rect height="22" width="102.5546875" y="288" x="53.6640625" class="er attributeBoxOdd"/><text style="dominant-baseline: middle; font-size: 10.2px;" transform="translate(58.6640625,299)" y="0" x="0" id="text-entity-User-022af2d1-79e6-4f58-905c-95b8186fd308-attr-13-name" class="er entityLabel">createdAt</text><rect height="22" width="21.5625" y="288" x="156.21875" class="er attributeBoxOdd"/><text style="dominant-baseline: middle; font-size: 10.2px;" transform="translate(161.21875,299)" y="0" x="0" id="text-entity-User-022af2d1-79e6-4f58-905c-95b8186fd308-attr-13-key" class="er entityLabel"/><rect height="22" width="46.78125" y="288" x="177.78125" class="er attributeBoxOdd"/><text style="dominant-baseline: middle; font-size: 10.2px;" transform="translate(182.78125,299)" y="0" x="0" id="text-entity-User-022af2d1-79e6-4f58-905c-95b8186fd308-attr-13-comment" class="er entityLabel"/><rect height="22" width="53.6640625" y="310" x="0" class="er attributeBoxEven"/><text style="dominant-baseline: middle; font-size: 10.2px;" transform="translate(5,321)" y="0" x="0" id="text-entity-User-022af2d1-79e6-4f58-905c-95b8186fd308-attr-14-type" class="er entityLabel">String</text><rect height="22" width="102.5546875" y="310" x="53.6640625" class="er attributeBoxEven"/><text style="dominant-baseline: middle; font-size: 10.2px;" transform="translate(58.6640625,321)" y="0" x="0" id="text-entity-User-022af2d1-79e6-4f58-905c-95b8186fd308-attr-14-name" class="er entityLabel">verifyToken</text><rect height="22" width="21.5625" y="310" x="156.21875" class="er attributeBoxEven"/><text style="dominant-baseline: middle; font-size: 10.2px;" transform="translate(161.21875,321)" y="0" x="0" id="text-entity-User-022af2d1-79e6-4f58-905c-95b8186fd308-attr-14-key" class="er entityLabel"/><rect height="22" width="46.78125" y="310" x="177.78125" class="er attributeBoxEven"/><text style="dominant-baseline: middle; font-size: 10.2px;" transform="translate(182.78125,321)" y="0" x="0" id="text-entity-User-022af2d1-79e6-4f58-905c-95b8186fd308-attr-14-comment" class="er entityLabel">nullable</text></g><g transform="translate(175.7734375,221 )" id="entity-Membership-d6287ab7-d879-4fd4-ad98-4ed04cfc0f98"><rect height="90" width="100.046875" y="0" x="0" class="er entityBox"/><text style="dominant-baseline: middle; text-anchor: middle; font-size: 12px;" transform="translate(50.0234375,12)" y="0" x="0" id="text-entity-Membership-d6287ab7-d879-4fd4-ad98-4ed04cfc0f98" class="er entityLabel">Membership</text><rect height="22" width="36.5234375" y="24" x="0" class="er attributeBoxOdd"/><text style="dominant-baseline: middle; font-size: 10.2px;" transform="translate(5,35)" y="0" x="0" id="text-entity-Membership-d6287ab7-d879-4fd4-ad98-4ed04cfc0f98-attr-1-type" class="er entityLabel">String</text><rect height="22" width="41.9609375" y="24" x="36.5234375" class="er attributeBoxOdd"/><text style="dominant-baseline: middle; font-size: 10.2px;" transform="translate(41.5234375,35)" y="0" x="0" id="text-entity-Membership-d6287ab7-d879-4fd4-ad98-4ed04cfc0f98-attr-1-name" class="er entityLabel">id</text><rect height="22" width="21.5625" y="24" x="78.484375" class="er attributeBoxOdd"/><text style="dominant-baseline: middle; font-size: 10.2px;" transform="translate(83.484375,35)" y="0" x="0" id="text-entity-Membership-d6287ab7-d879-4fd4-ad98-4ed04cfc0f98-attr-1-key" class="er entityLabel">PK</text><rect height="22" width="36.5234375" y="46" x="0" class="er attributeBoxEven"/><text style="dominant-baseline: middle; font-size: 10.2px;" transform="translate(5,57)" y="0" x="0" id="text-entity-Membership-d6287ab7-d879-4fd4-ad98-4ed04cfc0f98-attr-2-type" class="er entityLabel">String</text><rect height="22" width="41.9609375" y="46" x="36.5234375" class="er attributeBoxEven"/><text style="dominant-baseline: middle; font-size: 10.2px;" transform="translate(41.5234375,57)" y="0" x="0" id="text-entity-Membership-d6287ab7-d879-4fd4-ad98-4ed04cfc0f98-attr-2-name" class="er entityLabel">userId</text><rect height="22" width="21.5625" y="46" x="78.484375" class="er attributeBoxEven"/><text style="dominant-baseline: middle; font-size: 10.2px;" transform="translate(83.484375,57)" y="0" x="0" id="text-entity-Membership-d6287ab7-d879-4fd4-ad98-4ed04cfc0f98-attr-2-key" class="er entityLabel"/><rect height="22" width="36.5234375" y="68" x="0" class="er attributeBoxOdd"/><text style="dominant-baseline: middle; font-size: 10.2px;" transform="translate(5,79)" y="0" x="0" id="text-entity-Membership-d6287ab7-d879-4fd4-ad98-4ed04cfc0f98-attr-3-type" class="er entityLabel">String</text><rect height="22" width="41.9609375" y="68" x="36.5234375" class="er attributeBoxOdd"/><text style="dominant-baseline: middle; font-size: 10.2px;" transform="translate(41.5234375,79)" y="0" x="0" id="text-entity-Membership-d6287ab7-d879-4fd4-ad98-4ed04cfc0f98-attr-3-name" class="er entityLabel">teamId</text><rect height="22" width="21.5625" y="68" x="78.484375" class="er attributeBoxOdd"/><text style="dominant-baseline: middle; font-size: 10.2px;" transform="translate(83.484375,79)" y="0" x="0" id="text-entity-Membership-d6287ab7-d879-4fd4-ad98-4ed04cfc0f98-attr-3-key" class="er entityLabel"/></g><g transform="translate(20,521 )" id="entity-Team-a86bfee6-f2a0-4280-abc2-746d741441f9"><rect height="134" width="132.875" y="0" x="0" class="er entityBox"/><text style="dominant-baseline: middle; text-anchor: middle; font-size: 12px;" transform="translate(66.4375,12)" y="0" x="0" id="text-entity-Team-a86bfee6-f2a0-4280-abc2-746d741441f9" class="er entityLabel">Team</text><rect height="22" width="53.6640625" y="24" x="0" class="er attributeBoxOdd"/><text style="dominant-baseline: middle; font-size: 10.2px;" transform="translate(5,35)" y="0" x="0" id="text-entity-Team-a86bfee6-f2a0-4280-abc2-746d741441f9-attr-1-type" class="er entityLabel">String</text><rect height="22" width="57.6484375" y="24" x="53.6640625" class="er attributeBoxOdd"/><text style="dominant-baseline: middle; font-size: 10.2px;" transform="translate(58.6640625,35)" y="0" x="0" id="text-entity-Team-a86bfee6-f2a0-4280-abc2-746d741441f9-attr-1-name" class="er entityLabel">id</text><rect height="22" width="21.5625" y="24" x="111.3125" class="er attributeBoxOdd"/><text style="dominant-baseline: middle; font-size: 10.2px;" transform="translate(116.3125,35)" y="0" x="0" id="text-entity-Team-a86bfee6-f2a0-4280-abc2-746d741441f9-attr-1-key" class="er entityLabel">PK</text><rect height="22" width="53.6640625" y="46" x="0" class="er attributeBoxEven"/><text style="dominant-baseline: middle; font-size: 10.2px;" transform="translate(5,57)" y="0" x="0" id="text-entity-Team-a86bfee6-f2a0-4280-abc2-746d741441f9-attr-2-type" class="er entityLabel">String</text><rect height="22" width="57.6484375" y="46" x="53.6640625" class="er attributeBoxEven"/><text style="dominant-baseline: middle; font-size: 10.2px;" transform="translate(58.6640625,57)" y="0" x="0" id="text-entity-Team-a86bfee6-f2a0-4280-abc2-746d741441f9-attr-2-name" class="er entityLabel">name</text><rect height="22" width="21.5625" y="46" x="111.3125" class="er attributeBoxEven"/><text style="dominant-baseline: middle; font-size: 10.2px;" transform="translate(116.3125,57)" y="0" x="0" id="text-entity-Team-a86bfee6-f2a0-4280-abc2-746d741441f9-attr-2-key" class="er entityLabel"/><rect height="22" width="53.6640625" y="68" x="0" class="er attributeBoxOdd"/><text style="dominant-baseline: middle; font-size: 10.2px;" transform="translate(5,79)" y="0" x="0" id="text-entity-Team-a86bfee6-f2a0-4280-abc2-746d741441f9-attr-3-type" class="er entityLabel">Boolean</text><rect height="22" width="57.6484375" y="68" x="53.6640625" class="er attributeBoxOdd"/><text style="dominant-baseline: middle; font-size: 10.2px;" transform="translate(58.6640625,79)" y="0" x="0" id="text-entity-Team-a86bfee6-f2a0-4280-abc2-746d741441f9-attr-3-name" class="er entityLabel">active</text><rect height="22" width="21.5625" y="68" x="111.3125" class="er attributeBoxOdd"/><text style="dominant-baseline: middle; font-size: 10.2px;" transform="translate(116.3125,79)" y="0" x="0" id="text-entity-Team-a86bfee6-f2a0-4280-abc2-746d741441f9-attr-3-key" class="er entityLabel"/><rect height="22" width="53.6640625" y="90" x="0" class="er attributeBoxEven"/><text style="dominant-baseline: middle; font-size: 10.2px;" transform="translate(5,101)" y="0" x="0" id="text-entity-Team-a86bfee6-f2a0-4280-abc2-746d741441f9-attr-4-type" class="er entityLabel">DateTime</text><rect height="22" width="57.6484375" y="90" x="53.6640625" class="er attributeBoxEven"/><text style="dominant-baseline: middle; font-size: 10.2px;" transform="translate(58.6640625,101)" y="0" x="0" id="text-entity-Team-a86bfee6-f2a0-4280-abc2-746d741441f9-attr-4-name" class="er entityLabel">updatedAt</text><rect height="22" width="21.5625" y="90" x="111.3125" class="er attributeBoxEven"/><text style="dominant-baseline: middle; font-size: 10.2px;" transform="translate(116.3125,101)" y="0" x="0" id="text-entity-Team-a86bfee6-f2a0-4280-abc2-746d741441f9-attr-4-key" class="er entityLabel"/><rect height="22" width="53.6640625" y="112" x="0" class="er attributeBoxOdd"/><text style="dominant-baseline: middle; font-size: 10.2px;" transform="translate(5,123)" y="0" x="0" id="text-entity-Team-a86bfee6-f2a0-4280-abc2-746d741441f9-attr-5-type" class="er entityLabel">DateTime</text><rect height="22" width="57.6484375" y="112" x="53.6640625" class="er attributeBoxOdd"/><text style="dominant-baseline: middle; font-size: 10.2px;" transform="translate(58.6640625,123)" y="0" x="0" id="text-entity-Team-a86bfee6-f2a0-4280-abc2-746d741441f9-attr-5-name" class="er entityLabel">createdAt</text><rect height="22" width="21.5625" y="112" x="111.3125" class="er attributeBoxOdd"/><text style="dominant-baseline: middle; font-size: 10.2px;" transform="translate(116.3125,123)" y="0" x="0" id="text-entity-Team-a86bfee6-f2a0-4280-abc2-746d741441f9-attr-5-key" class="er entityLabel"/></g><g transform="translate(267.72265625,20 )" id="entity-MembershipRole-0b603082-2c18-4d3d-9b8e-4bc7365a86ed"><rect height="90" width="132.609375" y="0" x="0" class="er entityBox"/><text style="dominant-baseline: middle; text-anchor: middle; font-size: 12px;" transform="translate(66.3046875,12)" y="0" x="0" id="text-entity-MembershipRole-0b603082-2c18-4d3d-9b8e-4bc7365a86ed" class="er entityLabel">MembershipRole</text><rect height="22" width="36.5234375" y="24" x="0" class="er attributeBoxOdd"/><text style="dominant-baseline: middle; font-size: 10.2px;" transform="translate(5,35)" y="0" x="0" id="text-entity-MembershipRole-0b603082-2c18-4d3d-9b8e-4bc7365a86ed-attr-1-type" class="er entityLabel">String</text><rect height="22" width="74.5234375" y="24" x="36.5234375" class="er attributeBoxOdd"/><text style="dominant-baseline: middle; font-size: 10.2px;" transform="translate(41.5234375,35)" y="0" x="0" id="text-entity-MembershipRole-0b603082-2c18-4d3d-9b8e-4bc7365a86ed-attr-1-name" class="er entityLabel">id</text><rect height="22" width="21.5625" y="24" x="111.046875" class="er attributeBoxOdd"/><text style="dominant-baseline: middle; font-size: 10.2px;" transform="translate(116.046875,35)" y="0" x="0" id="text-entity-MembershipRole-0b603082-2c18-4d3d-9b8e-4bc7365a86ed-attr-1-key" class="er entityLabel">PK</text><rect height="22" width="36.5234375" y="46" x="0" class="er attributeBoxEven"/><text style="dominant-baseline: middle; font-size: 10.2px;" transform="translate(5,57)" y="0" x="0" id="text-entity-MembershipRole-0b603082-2c18-4d3d-9b8e-4bc7365a86ed-attr-2-type" class="er entityLabel">String</text><rect height="22" width="74.5234375" y="46" x="36.5234375" class="er attributeBoxEven"/><text style="dominant-baseline: middle; font-size: 10.2px;" transform="translate(41.5234375,57)" y="0" x="0" id="text-entity-MembershipRole-0b603082-2c18-4d3d-9b8e-4bc7365a86ed-attr-2-name" class="er entityLabel">membershipId</text><rect height="22" width="21.5625" y="46" x="111.046875" class="er attributeBoxEven"/><text style="dominant-baseline: middle; font-size: 10.2px;" transform="translate(116.046875,57)" y="0" x="0" id="text-entity-MembershipRole-0b603082-2c18-4d3d-9b8e-4bc7365a86ed-attr-2-key" class="er entityLabel"/><rect height="22" width="36.5234375" y="68" x="0" class="er attributeBoxOdd"/><text style="dominant-baseline: middle; font-size: 10.2px;" transform="translate(5,79)" y="0" x="0" id="text-entity-MembershipRole-0b603082-2c18-4d3d-9b8e-4bc7365a86ed-attr-3-type" class="er entityLabel">String</text><rect height="22" width="74.5234375" y="68" x="36.5234375" class="er attributeBoxOdd"/><text style="dominant-baseline: middle; font-size: 10.2px;" transform="translate(41.5234375,79)" y="0" x="0" id="text-entity-MembershipRole-0b603082-2c18-4d3d-9b8e-4bc7365a86ed-attr-3-name" class="er entityLabel">roleId</text><rect height="22" width="21.5625" y="68" x="111.046875" class="er attributeBoxOdd"/><text style="dominant-baseline: middle; font-size: 10.2px;" transform="translate(116.046875,79)" y="0" x="0" id="text-entity-MembershipRole-0b603082-2c18-4d3d-9b8e-4bc7365a86ed-attr-3-key" class="er entityLabel"/></g><g transform="translate(375.8203125,210 )" id="entity-Role-ea72ca47-159b-43dd-8af9-bc557b5d3845"><rect height="112" width="132.875" y="0" x="0" class="er entityBox"/><text style="dominant-baseline: middle; text-anchor: middle; font-size: 12px;" transform="translate(66.4375,12)" y="0" x="0" id="text-entity-Role-ea72ca47-159b-43dd-8af9-bc557b5d3845" class="er entityLabel">Role</text><rect height="22" width="53.6640625" y="24" x="0" class="er attributeBoxOdd"/><text style="dominant-baseline: middle; font-size: 10.2px;" transform="translate(5,35)" y="0" x="0" id="text-entity-Role-ea72ca47-159b-43dd-8af9-bc557b5d3845-attr-1-type" class="er entityLabel">String</text><rect height="22" width="57.6484375" y="24" x="53.6640625" class="er attributeBoxOdd"/><text style="dominant-baseline: middle; font-size: 10.2px;" transform="translate(58.6640625,35)" y="0" x="0" id="text-entity-Role-ea72ca47-159b-43dd-8af9-bc557b5d3845-attr-1-name" class="er entityLabel">id</text><rect height="22" width="21.5625" y="24" x="111.3125" class="er attributeBoxOdd"/><text style="dominant-baseline: middle; font-size: 10.2px;" transform="translate(116.3125,35)" y="0" x="0" id="text-entity-Role-ea72ca47-159b-43dd-8af9-bc557b5d3845-attr-1-key" class="er entityLabel">PK</text><rect height="22" width="53.6640625" y="46" x="0" class="er attributeBoxEven"/><text style="dominant-baseline: middle; font-size: 10.2px;" transform="translate(5,57)" y="0" x="0" id="text-entity-Role-ea72ca47-159b-43dd-8af9-bc557b5d3845-attr-2-type" class="er entityLabel">String</text><rect height="22" width="57.6484375" y="46" x="53.6640625" class="er attributeBoxEven"/><text style="dominant-baseline: middle; font-size: 10.2px;" transform="translate(58.6640625,57)" y="0" x="0" id="text-entity-Role-ea72ca47-159b-43dd-8af9-bc557b5d3845-attr-2-name" class="er entityLabel">name</text><rect height="22" width="21.5625" y="46" x="111.3125" class="er attributeBoxEven"/><text style="dominant-baseline: middle; font-size: 10.2px;" transform="translate(116.3125,57)" y="0" x="0" id="text-entity-Role-ea72ca47-159b-43dd-8af9-bc557b5d3845-attr-2-key" class="er entityLabel"/><rect height="22" width="53.6640625" y="68" x="0" class="er attributeBoxOdd"/><text style="dominant-baseline: middle; font-size: 10.2px;" transform="translate(5,79)" y="0" x="0" id="text-entity-Role-ea72ca47-159b-43dd-8af9-bc557b5d3845-attr-3-type" class="er entityLabel">DateTime</text><rect height="22" width="57.6484375" y="68" x="53.6640625" class="er attributeBoxOdd"/><text style="dominant-baseline: middle; font-size: 10.2px;" transform="translate(58.6640625,79)" y="0" x="0" id="text-entity-Role-ea72ca47-159b-43dd-8af9-bc557b5d3845-attr-3-name" class="er entityLabel">createdAt</text><rect height="22" width="21.5625" y="68" x="111.3125" class="er attributeBoxOdd"/><text style="dominant-baseline: middle; font-size: 10.2px;" transform="translate(116.3125,79)" y="0" x="0" id="text-entity-Role-ea72ca47-159b-43dd-8af9-bc557b5d3845-attr-3-key" class="er entityLabel"/><rect height="22" width="53.6640625" y="90" x="0" class="er attributeBoxEven"/><text style="dominant-baseline: middle; font-size: 10.2px;" transform="translate(5,101)" y="0" x="0" id="text-entity-Role-ea72ca47-159b-43dd-8af9-bc557b5d3845-attr-4-type" class="er entityLabel">DateTime</text><rect height="22" width="57.6484375" y="90" x="53.6640625" class="er attributeBoxEven"/><text style="dominant-baseline: middle; font-size: 10.2px;" transform="translate(58.6640625,101)" y="0" x="0" id="text-entity-Role-ea72ca47-159b-43dd-8af9-bc557b5d3845-attr-4-name" class="er entityLabel">updatedAt</text><rect height="22" width="21.5625" y="90" x="111.3125" class="er attributeBoxEven"/><text style="dominant-baseline: middle; font-size: 10.2px;" transform="translate(116.3125,101)" y="0" x="0" id="text-entity-Role-ea72ca47-159b-43dd-8af9-bc557b5d3845-attr-4-key" class="er entityLabel"/></g><rect height="14" width="27.5703125" y="390.41204833984375" x="83.29238891601562" class="er relationshipLabelBox"/><text style="text-anchor: middle; dominant-baseline: middle; font-size: 12px;" y="397.41204833984375" x="97.07754516601562" id="rel1" class="er relationshipLabel">team</text><rect height="14" width="22.625" y="346.1568908691406" x="324.6785583496094" class="er relationshipLabelBox"/><text style="text-anchor: middle; dominant-baseline: middle; font-size: 12px;" y="353.1568908691406" x="335.9910583496094" id="rel2" class="er relationshipLabel">user</text><rect height="14" width="65.8828125" y="150.40859985351562" x="204.8147735595703" class="er relationshipLabelBox"/><text style="text-anchor: middle; dominant-baseline: middle; font-size: 12px;" y="157.40859985351562" x="237.7561798095703" id="rel3" class="er relationshipLabel">membership</text><rect height="14" width="21.1875" y="145.5958709716797" x="417.3700866699219" class="er relationshipLabelBox"/><text style="text-anchor: middle; dominant-baseline: middle; font-size: 12px;" y="152.5958709716797" x="427.9638366699219" id="rel4" class="er relationshipLabel">role</text></svg>