<svg aria-roledescription="er" viewBox="0 0 528.671875 730" style="max-width: 528.672px; background-color: white;" xmlns:xlink="http://www.w3.org/1999/xlink" xmlns="http://www.w3.org/2000/svg" width="100%" id="mermaid-0"><style>#mermaid-0{font-family:"trebuchet ms",verdana,arial,sans-serif;font-size:16px;fill:#000000;}#mermaid-0 .error-icon{fill:#552222;}#mermaid-0 .error-text{fill:#552222;stroke:#552222;}#mermaid-0 .edge-thickness-normal{stroke-width:2px;}#mermaid-0 .edge-thickness-thick{stroke-width:3.5px;}#mermaid-0 .edge-pattern-solid{stroke-dasharray:0;}#mermaid-0 .edge-pattern-dashed{stroke-dasharray:3;}#mermaid-0 .edge-pattern-dotted{stroke-dasharray:2;}#mermaid-0 .marker{fill:#666;stroke:#666;}#mermaid-0 .marker.cross{stroke:#666;}#mermaid-0 svg{font-family:"trebuchet ms",verdana,arial,sans-serif;font-size:16px;}#mermaid-0 .entityBox{fill:#eee;stroke:#999;}#mermaid-0 .attributeBoxOdd{fill:#ffffff;stroke:#999;}#mermaid-0 .attributeBoxEven{fill:#f2f2f2;stroke:#999;}#mermaid-0 .relationshipLabelBox{fill:hsl(-160, 0%, 93.3333333333%);opacity:0.7;background-color:hsl(-160, 0%, 93.3333333333%);}#mermaid-0 .relationshipLabelBox rect{opacity:0.5;}#mermaid-0 .relationshipLine{stroke:#666;}#mermaid-0 .entityTitleText{text-anchor:middle;font-size:18px;fill:#000000;}#mermaid-0 :root{--mermaid-font-family:"trebuchet ms",verdana,arial,sans-serif;}</style><g/><defs><marker orient="auto" markerHeight="18" markerWidth="18" refY="9" refX="0" id="ONLY_ONE_START"><path d="M9,0 L9,18 M15,0 L15,18" fill="none" stroke="gray"/></marker></defs><defs><marker orient="auto" markerHeight="18" markerWidth="18" refY="9" refX="18" id="ONLY_ONE_END"><path d="M3,0 L3,18 M9,0 L9,18" fill="none" stroke="gray"/></marker></defs><defs><marker orient="auto" markerHeight="18" markerWidth="30" refY="9" refX="0" id="ZERO_OR_ONE_START"><circle r="6" cy="9" cx="21" fill="white" stroke="gray"/><path d="M9,0 L9,18" fill="none" stroke="gray"/></marker></defs><defs><marker orient="auto" markerHeight="18" markerWidth="30" refY="9" refX="30" id="ZERO_OR_ONE_END"><circle r="6" cy="9" cx="9" fill="white" stroke="gray"/><path d="M21,0 L21,18" fill="none" stroke="gray"/></marker></defs><defs><marker orient="auto" markerHeight="36" markerWidth="45" refY="18" refX="18" id="ONE_OR_MORE_START"><path d="M0,18 Q 18,0 36,18 Q 18,36 0,18 M42,9 L42,27" fill="none" stroke="gray"/></marker></defs><defs><marker orient="auto" markerHeight="36" markerWidth="45" refY="18" refX="27" id="ONE_OR_MORE_END"><path d="M3,9 L3,27 M9,18 Q27,0 45,18 Q27,36 9,18" fill="none" stroke="gray"/></marker></defs><defs><marker orient="auto" markerHeight="36" markerWidth="57" refY="18" refX="18" id="ZERO_OR_MORE_START"><circle r="6" cy="18" cx="48" fill="white" stroke="gray"/><path d="M0,18 Q18,0 36,18 Q18,36 0,18" fill="none" stroke="gray"/></marker></defs><defs><marker orient="auto" markerHeight="36" markerWidth="57" refY="18" refX="39" id="ZERO_OR_MORE_END"><circle r="6" cy="18" cx="9" fill="white" stroke="gray"/><path d="M21,18 Q39,0 57,18 Q39,36 21,18" fill="none" stroke="gray"/></marker></defs><path style="stroke: gray; fill: none;" marker-start="url(#ZERO_OR_MORE_START)" marker-end="url(#ONLY_ONE_END)" d="M195.55852004716982,245L177.3716833726415,258.8333333333333C159.1848466981132,272.6666666666667,122.81117334905662,300.3333333333333,104.62433667452831,339C86.4375,377.6666666666667,86.4375,427.3333333333333,86.4375,452.1666666666667L86.4375,477" class="er relationshipLine"/><path style="stroke: gray; fill: none;" marker-start="url(#ZERO_OR_MORE_START)" marker-end="url(#ONLY_ONE_END)" d="M256.0352299528302,245L274.2220666273585,258.8333333333333C292.4089033018868,272.6666666666667,328.7825766509434,300.3333333333333,346.96941332547175,322.5C365.15625,344.6666666666667,365.15625,361.3333333333333,365.15625,369.6666666666667L365.15625,378" class="er relationshipLine"/><path style="stroke: gray; fill: none;" marker-start="url(#ZERO_OR_MORE_START)" marker-end="url(#ONLY_ONE_END)" d="M299.9193065068493,66L287.56556792237444,74.33333333333333C275.21182933789953,82.66666666666667,250.5043521689498,99.33333333333333,238.15061358447488,121.5C225.796875,143.66666666666666,225.796875,171.33333333333334,225.796875,185.16666666666666L225.796875,199" class="er relationshipLine"/><path style="stroke: gray; fill: none;" marker-start="url(#ZERO_OR_MORE_START)" marker-end="url(#ONLY_ONE_END)" d="M368.1119434931507,66L380.46568207762556,74.33333333333333C392.8194206621004,82.66666666666667,417.52689783105023,99.33333333333333,429.8806364155251,116C442.234375,132.66666666666666,442.234375,149.33333333333334,442.234375,157.66666666666666L442.234375,166" class="er relationshipLine"/><g transform="translate(252.875,378 )" id="entity-User-7fff7bee-fc7d-4fa8-af60-a52d5612786c"><rect height="332" width="224.5625" y="0" x="0" class="er entityBox"/><text style="dominant-baseline: middle; text-anchor: middle; font-size: 12px;" transform="translate(112.28125,12)" y="0" x="0" id="text-entity-User-7fff7bee-fc7d-4fa8-af60-a52d5612786c" class="er entityLabel">User</text><rect height="22" width="53.6640625" y="24" x="0" class="er attributeBoxOdd"/><text style="dominant-baseline: middle; font-size: 10.2px;" transform="translate(5,35)" y="0" x="0" id="text-entity-User-7fff7bee-fc7d-4fa8-af60-a52d5612786c-attr-1-type" class="er entityLabel">String</text><rect height="22" width="102.5546875" y="24" x="53.6640625" class="er attributeBoxOdd"/><text style="dominant-baseline: middle; font-size: 10.2px;" transform="translate(58.6640625,35)" y="0" x="0" id="text-entity-User-7fff7bee-fc7d-4fa8-af60-a52d5612786c-attr-1-name" class="er entityLabel">id</text><rect height="22" width="21.5625" y="24" x="156.21875" class="er attributeBoxOdd"/><text style="dominant-baseline: middle; font-size: 10.2px;" transform="translate(161.21875,35)" y="0" x="0" id="text-entity-User-7fff7bee-fc7d-4fa8-af60-a52d5612786c-attr-1-key" class="er entityLabel">PK</text><rect height="22" width="46.78125" y="24" x="177.78125" class="er attributeBoxOdd"/><text style="dominant-baseline: middle; font-size: 10.2px;" transform="translate(182.78125,35)" y="0" x="0" id="text-entity-User-7fff7bee-fc7d-4fa8-af60-a52d5612786c-attr-1-comment" class="er entityLabel"/><rect height="22" width="53.6640625" y="46" x="0" class="er attributeBoxEven"/><text style="dominant-baseline: middle; font-size: 10.2px;" transform="translate(5,57)" y="0" x="0" id="text-entity-User-7fff7bee-fc7d-4fa8-af60-a52d5612786c-attr-2-type" class="er entityLabel">String</text><rect height="22" width="102.5546875" y="46" x="53.6640625" class="er attributeBoxEven"/><text style="dominant-baseline: middle; font-size: 10.2px;" transform="translate(58.6640625,57)" y="0" x="0" id="text-entity-User-7fff7bee-fc7d-4fa8-af60-a52d5612786c-attr-2-name" class="er entityLabel">email</text><rect height="22" width="21.5625" y="46" x="156.21875" class="er attributeBoxEven"/><text style="dominant-baseline: middle; font-size: 10.2px;" transform="translate(161.21875,57)" y="0" x="0" id="text-entity-User-7fff7bee-fc7d-4fa8-af60-a52d5612786c-attr-2-key" class="er entityLabel"/><rect height="22" width="46.78125" y="46" x="177.78125" class="er attributeBoxEven"/><text style="dominant-baseline: middle; font-size: 10.2px;" transform="translate(182.78125,57)" y="0" x="0" id="text-entity-User-7fff7bee-fc7d-4fa8-af60-a52d5612786c-attr-2-comment" class="er entityLabel"/><rect height="22" width="53.6640625" y="68" x="0" class="er attributeBoxOdd"/><text style="dominant-baseline: middle; font-size: 10.2px;" transform="translate(5,79)" y="0" x="0" id="text-entity-User-7fff7bee-fc7d-4fa8-af60-a52d5612786c-attr-3-type" class="er entityLabel">String</text><rect height="22" width="102.5546875" y="68" x="53.6640625" class="er attributeBoxOdd"/><text style="dominant-baseline: middle; font-size: 10.2px;" transform="translate(58.6640625,79)" y="0" x="0" id="text-entity-User-7fff7bee-fc7d-4fa8-af60-a52d5612786c-attr-3-name" class="er entityLabel">name</text><rect height="22" width="21.5625" y="68" x="156.21875" class="er attributeBoxOdd"/><text style="dominant-baseline: middle; font-size: 10.2px;" transform="translate(161.21875,79)" y="0" x="0" id="text-entity-User-7fff7bee-fc7d-4fa8-af60-a52d5612786c-attr-3-key" class="er entityLabel"/><rect height="22" width="46.78125" y="68" x="177.78125" class="er attributeBoxOdd"/><text style="dominant-baseline: middle; font-size: 10.2px;" transform="translate(182.78125,79)" y="0" x="0" id="text-entity-User-7fff7bee-fc7d-4fa8-af60-a52d5612786c-attr-3-comment" class="er entityLabel">nullable</text><rect height="22" width="53.6640625" y="90" x="0" class="er attributeBoxEven"/><text style="dominant-baseline: middle; font-size: 10.2px;" transform="translate(5,101)" y="0" x="0" id="text-entity-User-7fff7bee-fc7d-4fa8-af60-a52d5612786c-attr-4-type" class="er entityLabel">String</text><rect height="22" width="102.5546875" y="90" x="53.6640625" class="er attributeBoxEven"/><text style="dominant-baseline: middle; font-size: 10.2px;" transform="translate(58.6640625,101)" y="0" x="0" id="text-entity-User-7fff7bee-fc7d-4fa8-af60-a52d5612786c-attr-4-name" class="er entityLabel">nickname</text><rect height="22" width="21.5625" y="90" x="156.21875" class="er attributeBoxEven"/><text style="dominant-baseline: middle; font-size: 10.2px;" transform="translate(161.21875,101)" y="0" x="0" id="text-entity-User-7fff7bee-fc7d-4fa8-af60-a52d5612786c-attr-4-key" class="er entityLabel"/><rect height="22" width="46.78125" y="90" x="177.78125" class="er attributeBoxEven"/><text style="dominant-baseline: middle; font-size: 10.2px;" transform="translate(182.78125,101)" y="0" x="0" id="text-entity-User-7fff7bee-fc7d-4fa8-af60-a52d5612786c-attr-4-comment" class="er entityLabel">nullable</text><rect height="22" width="53.6640625" y="112" x="0" class="er attributeBoxOdd"/><text style="dominant-baseline: middle; font-size: 10.2px;" transform="translate(5,123)" y="0" x="0" id="text-entity-User-7fff7bee-fc7d-4fa8-af60-a52d5612786c-attr-5-type" class="er entityLabel">String</text><rect height="22" width="102.5546875" y="112" x="53.6640625" class="er attributeBoxOdd"/><text style="dominant-baseline: middle; font-size: 10.2px;" transform="translate(58.6640625,123)" y="0" x="0" id="text-entity-User-7fff7bee-fc7d-4fa8-af60-a52d5612786c-attr-5-name" class="er entityLabel">pronouns</text><rect height="22" width="21.5625" y="112" x="156.21875" class="er attributeBoxOdd"/><text style="dominant-baseline: middle; font-size: 10.2px;" transform="translate(161.21875,123)" y="0" x="0" id="text-entity-User-7fff7bee-fc7d-4fa8-af60-a52d5612786c-attr-5-key" class="er entityLabel"/><rect height="22" width="46.78125" y="112" x="177.78125" class="er attributeBoxOdd"/><text style="dominant-baseline: middle; font-size: 10.2px;" transform="translate(182.78125,123)" y="0" x="0" id="text-entity-User-7fff7bee-fc7d-4fa8-af60-a52d5612786c-attr-5-comment" class="er entityLabel">nullable</text><rect height="22" width="53.6640625" y="134" x="0" class="er attributeBoxEven"/><text style="dominant-baseline: middle; font-size: 10.2px;" transform="translate(5,145)" y="0" x="0" id="text-entity-User-7fff7bee-fc7d-4fa8-af60-a52d5612786c-attr-6-type" class="er entityLabel">Boolean</text><rect height="22" width="102.5546875" y="134" x="53.6640625" class="er attributeBoxEven"/><text style="dominant-baseline: middle; font-size: 10.2px;" transform="translate(58.6640625,145)" y="0" x="0" id="text-entity-User-7fff7bee-fc7d-4fa8-af60-a52d5612786c-attr-6-name" class="er entityLabel">active</text><rect height="22" width="21.5625" y="134" x="156.21875" class="er attributeBoxEven"/><text style="dominant-baseline: middle; font-size: 10.2px;" transform="translate(161.21875,145)" y="0" x="0" id="text-entity-User-7fff7bee-fc7d-4fa8-af60-a52d5612786c-attr-6-key" class="er entityLabel"/><rect height="22" width="46.78125" y="134" x="177.78125" class="er attributeBoxEven"/><text style="dominant-baseline: middle; font-size: 10.2px;" transform="translate(182.78125,145)" y="0" x="0" id="text-entity-User-7fff7bee-fc7d-4fa8-af60-a52d5612786c-attr-6-comment" class="er entityLabel"/><rect height="22" width="53.6640625" y="156" x="0" class="er attributeBoxOdd"/><text style="dominant-baseline: middle; font-size: 10.2px;" transform="translate(5,167)" y="0" x="0" id="text-entity-User-7fff7bee-fc7d-4fa8-af60-a52d5612786c-attr-7-type" class="er entityLabel">Boolean</text><rect height="22" width="102.5546875" y="156" x="53.6640625" class="er attributeBoxOdd"/><text style="dominant-baseline: middle; font-size: 10.2px;" transform="translate(58.6640625,167)" y="0" x="0" id="text-entity-User-7fff7bee-fc7d-4fa8-af60-a52d5612786c-attr-7-name" class="er entityLabel">admin</text><rect height="22" width="21.5625" y="156" x="156.21875" class="er attributeBoxOdd"/><text style="dominant-baseline: middle; font-size: 10.2px;" transform="translate(161.21875,167)" y="0" x="0" id="text-entity-User-7fff7bee-fc7d-4fa8-af60-a52d5612786c-attr-7-key" class="er entityLabel"/><rect height="22" width="46.78125" y="156" x="177.78125" class="er attributeBoxOdd"/><text style="dominant-baseline: middle; font-size: 10.2px;" transform="translate(182.78125,167)" y="0" x="0" id="text-entity-User-7fff7bee-fc7d-4fa8-af60-a52d5612786c-attr-7-comment" class="er entityLabel"/><rect height="22" width="53.6640625" y="178" x="0" class="er attributeBoxEven"/><text style="dominant-baseline: middle; font-size: 10.2px;" transform="translate(5,189)" y="0" x="0" id="text-entity-User-7fff7bee-fc7d-4fa8-af60-a52d5612786c-attr-8-type" class="er entityLabel">String</text><rect height="22" width="102.5546875" y="178" x="53.6640625" class="er attributeBoxEven"/><text style="dominant-baseline: middle; font-size: 10.2px;" transform="translate(58.6640625,189)" y="0" x="0" id="text-entity-User-7fff7bee-fc7d-4fa8-af60-a52d5612786c-attr-8-name" class="er entityLabel">hashedPassword</text><rect height="22" width="21.5625" y="178" x="156.21875" class="er attributeBoxEven"/><text style="dominant-baseline: middle; font-size: 10.2px;" transform="translate(161.21875,189)" y="0" x="0" id="text-entity-User-7fff7bee-fc7d-4fa8-af60-a52d5612786c-attr-8-key" class="er entityLabel"/><rect height="22" width="46.78125" y="178" x="177.78125" class="er attributeBoxEven"/><text style="dominant-baseline: middle; font-size: 10.2px;" transform="translate(182.78125,189)" y="0" x="0" id="text-entity-User-7fff7bee-fc7d-4fa8-af60-a52d5612786c-attr-8-comment" class="er entityLabel"/><rect height="22" width="53.6640625" y="200" x="0" class="er attributeBoxOdd"/><text style="dominant-baseline: middle; font-size: 10.2px;" transform="translate(5,211)" y="0" x="0" id="text-entity-User-7fff7bee-fc7d-4fa8-af60-a52d5612786c-attr-9-type" class="er entityLabel">String</text><rect height="22" width="102.5546875" y="200" x="53.6640625" class="er attributeBoxOdd"/><text style="dominant-baseline: middle; font-size: 10.2px;" transform="translate(58.6640625,211)" y="0" x="0" id="text-entity-User-7fff7bee-fc7d-4fa8-af60-a52d5612786c-attr-9-name" class="er entityLabel">salt</text><rect height="22" width="21.5625" y="200" x="156.21875" class="er attributeBoxOdd"/><text style="dominant-baseline: middle; font-size: 10.2px;" transform="translate(161.21875,211)" y="0" x="0" id="text-entity-User-7fff7bee-fc7d-4fa8-af60-a52d5612786c-attr-9-key" class="er entityLabel"/><rect height="22" width="46.78125" y="200" x="177.78125" class="er attributeBoxOdd"/><text style="dominant-baseline: middle; font-size: 10.2px;" transform="translate(182.78125,211)" y="0" x="0" id="text-entity-User-7fff7bee-fc7d-4fa8-af60-a52d5612786c-attr-9-comment" class="er entityLabel"/><rect height="22" width="53.6640625" y="222" x="0" class="er attributeBoxEven"/><text style="dominant-baseline: middle; font-size: 10.2px;" transform="translate(5,233)" y="0" x="0" id="text-entity-User-7fff7bee-fc7d-4fa8-af60-a52d5612786c-attr-10-type" class="er entityLabel">String</text><rect height="22" width="102.5546875" y="222" x="53.6640625" class="er attributeBoxEven"/><text style="dominant-baseline: middle; font-size: 10.2px;" transform="translate(58.6640625,233)" y="0" x="0" id="text-entity-User-7fff7bee-fc7d-4fa8-af60-a52d5612786c-attr-10-name" class="er entityLabel">resetToken</text><rect height="22" width="21.5625" y="222" x="156.21875" class="er attributeBoxEven"/><text style="dominant-baseline: middle; font-size: 10.2px;" transform="translate(161.21875,233)" y="0" x="0" id="text-entity-User-7fff7bee-fc7d-4fa8-af60-a52d5612786c-attr-10-key" class="er entityLabel"/><rect height="22" width="46.78125" y="222" x="177.78125" class="er attributeBoxEven"/><text style="dominant-baseline: middle; font-size: 10.2px;" transform="translate(182.78125,233)" y="0" x="0" id="text-entity-User-7fff7bee-fc7d-4fa8-af60-a52d5612786c-attr-10-comment" class="er entityLabel">nullable</text><rect height="22" width="53.6640625" y="244" x="0" class="er attributeBoxOdd"/><text style="dominant-baseline: middle; font-size: 10.2px;" transform="translate(5,255)" y="0" x="0" id="text-entity-User-7fff7bee-fc7d-4fa8-af60-a52d5612786c-attr-11-type" class="er entityLabel">DateTime</text><rect height="22" width="102.5546875" y="244" x="53.6640625" class="er attributeBoxOdd"/><text style="dominant-baseline: middle; font-size: 10.2px;" transform="translate(58.6640625,255)" y="0" x="0" id="text-entity-User-7fff7bee-fc7d-4fa8-af60-a52d5612786c-attr-11-name" class="er entityLabel">resetTokenExpiresAt</text><rect height="22" width="21.5625" y="244" x="156.21875" class="er attributeBoxOdd"/><text style="dominant-baseline: middle; font-size: 10.2px;" transform="translate(161.21875,255)" y="0" x="0" id="text-entity-User-7fff7bee-fc7d-4fa8-af60-a52d5612786c-attr-11-key" class="er entityLabel"/><rect height="22" width="46.78125" y="244" x="177.78125" class="er attributeBoxOdd"/><text style="dominant-baseline: middle; font-size: 10.2px;" transform="translate(182.78125,255)" y="0" x="0" id="text-entity-User-7fff7bee-fc7d-4fa8-af60-a52d5612786c-attr-11-comment" class="er entityLabel">nullable</text><rect height="22" width="53.6640625" y="266" x="0" class="er attributeBoxEven"/><text style="dominant-baseline: middle; font-size: 10.2px;" transform="translate(5,277)" y="0" x="0" id="text-entity-User-7fff7bee-fc7d-4fa8-af60-a52d5612786c-attr-12-type" class="er entityLabel">DateTime</text><rect height="22" width="102.5546875" y="266" x="53.6640625" class="er attributeBoxEven"/><text style="dominant-baseline: middle; font-size: 10.2px;" transform="translate(58.6640625,277)" y="0" x="0" id="text-entity-User-7fff7bee-fc7d-4fa8-af60-a52d5612786c-attr-12-name" class="er entityLabel">updatedAt</text><rect height="22" width="21.5625" y="266" x="156.21875" class="er attributeBoxEven"/><text style="dominant-baseline: middle; font-size: 10.2px;" transform="translate(161.21875,277)" y="0" x="0" id="text-entity-User-7fff7bee-fc7d-4fa8-af60-a52d5612786c-attr-12-key" class="er entityLabel"/><rect height="22" width="46.78125" y="266" x="177.78125" class="er attributeBoxEven"/><text style="dominant-baseline: middle; font-size: 10.2px;" transform="translate(182.78125,277)" y="0" x="0" id="text-entity-User-7fff7bee-fc7d-4fa8-af60-a52d5612786c-attr-12-comment" class="er entityLabel"/><rect height="22" width="53.6640625" y="288" x="0" class="er attributeBoxOdd"/><text style="dominant-baseline: middle; font-size: 10.2px;" transform="translate(5,299)" y="0" x="0" id="text-entity-User-7fff7bee-fc7d-4fa8-af60-a52d5612786c-attr-13-type" class="er entityLabel">DateTime</text><rect height="22" width="102.5546875" y="288" x="53.6640625" class="er attributeBoxOdd"/><text style="dominant-baseline: middle; font-size: 10.2px;" transform="translate(58.6640625,299)" y="0" x="0" id="text-entity-User-7fff7bee-fc7d-4fa8-af60-a52d5612786c-attr-13-name" class="er entityLabel">createdAt</text><rect height="22" width="21.5625" y="288" x="156.21875" class="er attributeBoxOdd"/><text style="dominant-baseline: middle; font-size: 10.2px;" transform="translate(161.21875,299)" y="0" x="0" id="text-entity-User-7fff7bee-fc7d-4fa8-af60-a52d5612786c-attr-13-key" class="er entityLabel"/><rect height="22" width="46.78125" y="288" x="177.78125" class="er attributeBoxOdd"/><text style="dominant-baseline: middle; font-size: 10.2px;" transform="translate(182.78125,299)" y="0" x="0" id="text-entity-User-7fff7bee-fc7d-4fa8-af60-a52d5612786c-attr-13-comment" class="er entityLabel"/><rect height="22" width="53.6640625" y="310" x="0" class="er attributeBoxEven"/><text style="dominant-baseline: middle; font-size: 10.2px;" transform="translate(5,321)" y="0" x="0" id="text-entity-User-7fff7bee-fc7d-4fa8-af60-a52d5612786c-attr-14-type" class="er entityLabel">String</text><rect height="22" width="102.5546875" y="310" x="53.6640625" class="er attributeBoxEven"/><text style="dominant-baseline: middle; font-size: 10.2px;" transform="translate(58.6640625,321)" y="0" x="0" id="text-entity-User-7fff7bee-fc7d-4fa8-af60-a52d5612786c-attr-14-name" class="er entityLabel">verifyToken</text><rect height="22" width="21.5625" y="310" x="156.21875" class="er attributeBoxEven"/><text style="dominant-baseline: middle; font-size: 10.2px;" transform="translate(161.21875,321)" y="0" x="0" id="text-entity-User-7fff7bee-fc7d-4fa8-af60-a52d5612786c-attr-14-key" class="er entityLabel"/><rect height="22" width="46.78125" y="310" x="177.78125" class="er attributeBoxEven"/><text style="dominant-baseline: middle; font-size: 10.2px;" transform="translate(182.78125,321)" y="0" x="0" id="text-entity-User-7fff7bee-fc7d-4fa8-af60-a52d5612786c-attr-14-comment" class="er entityLabel">nullable</text></g><g transform="translate(175.796875,199 )" id="entity-Membership-aed97cf1-e9f8-46f5-a455-ed1731b43b32"><rect height="46" width="100" y="0" x="0" class="er entityBox"/><text style="dominant-baseline: middle; text-anchor: middle; font-size: 12px;" transform="translate(50,12)" y="0" x="0" id="text-entity-Membership-aed97cf1-e9f8-46f5-a455-ed1731b43b32" class="er entityLabel">Membership</text><rect height="22" width="44.296875" y="24" x="0" class="er attributeBoxOdd"/><text style="dominant-baseline: middle; font-size: 10.2px;" transform="translate(5,35)" y="0" x="0" id="text-entity-Membership-aed97cf1-e9f8-46f5-a455-ed1731b43b32-attr-1-type" class="er entityLabel">String</text><rect height="22" width="26.3671875" y="24" x="44.296875" class="er attributeBoxOdd"/><text style="dominant-baseline: middle; font-size: 10.2px;" transform="translate(49.296875,35)" y="0" x="0" id="text-entity-Membership-aed97cf1-e9f8-46f5-a455-ed1731b43b32-attr-1-name" class="er entityLabel">id</text><rect height="22" width="29.3359375" y="24" x="70.6640625" class="er attributeBoxOdd"/><text style="dominant-baseline: middle; font-size: 10.2px;" transform="translate(75.6640625,35)" y="0" x="0" id="text-entity-Membership-aed97cf1-e9f8-46f5-a455-ed1731b43b32-attr-1-key" class="er entityLabel">PK</text></g><g transform="translate(20,477 )" id="entity-Team-069c4f10-a980-4c30-b20a-8aa9d0db15f5"><rect height="134" width="132.875" y="0" x="0" class="er entityBox"/><text style="dominant-baseline: middle; text-anchor: middle; font-size: 12px;" transform="translate(66.4375,12)" y="0" x="0" id="text-entity-Team-069c4f10-a980-4c30-b20a-8aa9d0db15f5" class="er entityLabel">Team</text><rect height="22" width="53.6640625" y="24" x="0" class="er attributeBoxOdd"/><text style="dominant-baseline: middle; font-size: 10.2px;" transform="translate(5,35)" y="0" x="0" id="text-entity-Team-069c4f10-a980-4c30-b20a-8aa9d0db15f5-attr-1-type" class="er entityLabel">String</text><rect height="22" width="57.6484375" y="24" x="53.6640625" class="er attributeBoxOdd"/><text style="dominant-baseline: middle; font-size: 10.2px;" transform="translate(58.6640625,35)" y="0" x="0" id="text-entity-Team-069c4f10-a980-4c30-b20a-8aa9d0db15f5-attr-1-name" class="er entityLabel">id</text><rect height="22" width="21.5625" y="24" x="111.3125" class="er attributeBoxOdd"/><text style="dominant-baseline: middle; font-size: 10.2px;" transform="translate(116.3125,35)" y="0" x="0" id="text-entity-Team-069c4f10-a980-4c30-b20a-8aa9d0db15f5-attr-1-key" class="er entityLabel">PK</text><rect height="22" width="53.6640625" y="46" x="0" class="er attributeBoxEven"/><text style="dominant-baseline: middle; font-size: 10.2px;" transform="translate(5,57)" y="0" x="0" id="text-entity-Team-069c4f10-a980-4c30-b20a-8aa9d0db15f5-attr-2-type" class="er entityLabel">String</text><rect height="22" width="57.6484375" y="46" x="53.6640625" class="er attributeBoxEven"/><text style="dominant-baseline: middle; font-size: 10.2px;" transform="translate(58.6640625,57)" y="0" x="0" id="text-entity-Team-069c4f10-a980-4c30-b20a-8aa9d0db15f5-attr-2-name" class="er entityLabel">name</text><rect height="22" width="21.5625" y="46" x="111.3125" class="er attributeBoxEven"/><text style="dominant-baseline: middle; font-size: 10.2px;" transform="translate(116.3125,57)" y="0" x="0" id="text-entity-Team-069c4f10-a980-4c30-b20a-8aa9d0db15f5-attr-2-key" class="er entityLabel"/><rect height="22" width="53.6640625" y="68" x="0" class="er attributeBoxOdd"/><text style="dominant-baseline: middle; font-size: 10.2px;" transform="translate(5,79)" y="0" x="0" id="text-entity-Team-069c4f10-a980-4c30-b20a-8aa9d0db15f5-attr-3-type" class="er entityLabel">Boolean</text><rect height="22" width="57.6484375" y="68" x="53.6640625" class="er attributeBoxOdd"/><text style="dominant-baseline: middle; font-size: 10.2px;" transform="translate(58.6640625,79)" y="0" x="0" id="text-entity-Team-069c4f10-a980-4c30-b20a-8aa9d0db15f5-attr-3-name" class="er entityLabel">active</text><rect height="22" width="21.5625" y="68" x="111.3125" class="er attributeBoxOdd"/><text style="dominant-baseline: middle; font-size: 10.2px;" transform="translate(116.3125,79)" y="0" x="0" id="text-entity-Team-069c4f10-a980-4c30-b20a-8aa9d0db15f5-attr-3-key" class="er entityLabel"/><rect height="22" width="53.6640625" y="90" x="0" class="er attributeBoxEven"/><text style="dominant-baseline: middle; font-size: 10.2px;" transform="translate(5,101)" y="0" x="0" id="text-entity-Team-069c4f10-a980-4c30-b20a-8aa9d0db15f5-attr-4-type" class="er entityLabel">DateTime</text><rect height="22" width="57.6484375" y="90" x="53.6640625" class="er attributeBoxEven"/><text style="dominant-baseline: middle; font-size: 10.2px;" transform="translate(58.6640625,101)" y="0" x="0" id="text-entity-Team-069c4f10-a980-4c30-b20a-8aa9d0db15f5-attr-4-name" class="er entityLabel">updatedAt</text><rect height="22" width="21.5625" y="90" x="111.3125" class="er attributeBoxEven"/><text style="dominant-baseline: middle; font-size: 10.2px;" transform="translate(116.3125,101)" y="0" x="0" id="text-entity-Team-069c4f10-a980-4c30-b20a-8aa9d0db15f5-attr-4-key" class="er entityLabel"/><rect height="22" width="53.6640625" y="112" x="0" class="er attributeBoxOdd"/><text style="dominant-baseline: middle; font-size: 10.2px;" transform="translate(5,123)" y="0" x="0" id="text-entity-Team-069c4f10-a980-4c30-b20a-8aa9d0db15f5-attr-5-type" class="er entityLabel">DateTime</text><rect height="22" width="57.6484375" y="112" x="53.6640625" class="er attributeBoxOdd"/><text style="dominant-baseline: middle; font-size: 10.2px;" transform="translate(58.6640625,123)" y="0" x="0" id="text-entity-Team-069c4f10-a980-4c30-b20a-8aa9d0db15f5-attr-5-name" class="er entityLabel">createdAt</text><rect height="22" width="21.5625" y="112" x="111.3125" class="er attributeBoxOdd"/><text style="dominant-baseline: middle; font-size: 10.2px;" transform="translate(116.3125,123)" y="0" x="0" id="text-entity-Team-069c4f10-a980-4c30-b20a-8aa9d0db15f5-attr-5-key" class="er entityLabel"/></g><g transform="translate(275.28515625,20 )" id="entity-MembershipRole-b5889c85-31e1-4820-b486-7a0b339677ce"><rect height="46" width="117.4609375" y="0" x="0" class="er entityBox"/><text style="dominant-baseline: middle; text-anchor: middle; font-size: 12px;" transform="translate(58.73046875,12)" y="0" x="0" id="text-entity-MembershipRole-b5889c85-31e1-4820-b486-7a0b339677ce" class="er entityLabel">MembershipRole</text><rect height="22" width="50.1171875" y="24" x="0" class="er attributeBoxOdd"/><text style="dominant-baseline: middle; font-size: 10.2px;" transform="translate(5,35)" y="0" x="0" id="text-entity-MembershipRole-b5889c85-31e1-4820-b486-7a0b339677ce-attr-1-type" class="er entityLabel">String</text><rect height="22" width="32.1875" y="24" x="50.1171875" class="er attributeBoxOdd"/><text style="dominant-baseline: middle; font-size: 10.2px;" transform="translate(55.1171875,35)" y="0" x="0" id="text-entity-MembershipRole-b5889c85-31e1-4820-b486-7a0b339677ce-attr-1-name" class="er entityLabel">id</text><rect height="22" width="35.15625" y="24" x="82.3046875" class="er attributeBoxOdd"/><text style="dominant-baseline: middle; font-size: 10.2px;" transform="translate(87.3046875,35)" y="0" x="0" id="text-entity-MembershipRole-b5889c85-31e1-4820-b486-7a0b339677ce-attr-1-key" class="er entityLabel">PK</text></g><g transform="translate(375.796875,166 )" id="entity-Role-0d1a36f9-6e20-4ecb-897f-c2a3af414139"><rect height="112" width="132.875" y="0" x="0" class="er entityBox"/><text style="dominant-baseline: middle; text-anchor: middle; font-size: 12px;" transform="translate(66.4375,12)" y="0" x="0" id="text-entity-Role-0d1a36f9-6e20-4ecb-897f-c2a3af414139" class="er entityLabel">Role</text><rect height="22" width="53.6640625" y="24" x="0" class="er attributeBoxOdd"/><text style="dominant-baseline: middle; font-size: 10.2px;" transform="translate(5,35)" y="0" x="0" id="text-entity-Role-0d1a36f9-6e20-4ecb-897f-c2a3af414139-attr-1-type" class="er entityLabel">String</text><rect height="22" width="57.6484375" y="24" x="53.6640625" class="er attributeBoxOdd"/><text style="dominant-baseline: middle; font-size: 10.2px;" transform="translate(58.6640625,35)" y="0" x="0" id="text-entity-Role-0d1a36f9-6e20-4ecb-897f-c2a3af414139-attr-1-name" class="er entityLabel">id</text><rect height="22" width="21.5625" y="24" x="111.3125" class="er attributeBoxOdd"/><text style="dominant-baseline: middle; font-size: 10.2px;" transform="translate(116.3125,35)" y="0" x="0" id="text-entity-Role-0d1a36f9-6e20-4ecb-897f-c2a3af414139-attr-1-key" class="er entityLabel">PK</text><rect height="22" width="53.6640625" y="46" x="0" class="er attributeBoxEven"/><text style="dominant-baseline: middle; font-size: 10.2px;" transform="translate(5,57)" y="0" x="0" id="text-entity-Role-0d1a36f9-6e20-4ecb-897f-c2a3af414139-attr-2-type" class="er entityLabel">String</text><rect height="22" width="57.6484375" y="46" x="53.6640625" class="er attributeBoxEven"/><text style="dominant-baseline: middle; font-size: 10.2px;" transform="translate(58.6640625,57)" y="0" x="0" id="text-entity-Role-0d1a36f9-6e20-4ecb-897f-c2a3af414139-attr-2-name" class="er entityLabel">name</text><rect height="22" width="21.5625" y="46" x="111.3125" class="er attributeBoxEven"/><text style="dominant-baseline: middle; font-size: 10.2px;" transform="translate(116.3125,57)" y="0" x="0" id="text-entity-Role-0d1a36f9-6e20-4ecb-897f-c2a3af414139-attr-2-key" class="er entityLabel"/><rect height="22" width="53.6640625" y="68" x="0" class="er attributeBoxOdd"/><text style="dominant-baseline: middle; font-size: 10.2px;" transform="translate(5,79)" y="0" x="0" id="text-entity-Role-0d1a36f9-6e20-4ecb-897f-c2a3af414139-attr-3-type" class="er entityLabel">DateTime</text><rect height="22" width="57.6484375" y="68" x="53.6640625" class="er attributeBoxOdd"/><text style="dominant-baseline: middle; font-size: 10.2px;" transform="translate(58.6640625,79)" y="0" x="0" id="text-entity-Role-0d1a36f9-6e20-4ecb-897f-c2a3af414139-attr-3-name" class="er entityLabel">createdAt</text><rect height="22" width="21.5625" y="68" x="111.3125" class="er attributeBoxOdd"/><text style="dominant-baseline: middle; font-size: 10.2px;" transform="translate(116.3125,79)" y="0" x="0" id="text-entity-Role-0d1a36f9-6e20-4ecb-897f-c2a3af414139-attr-3-key" class="er entityLabel"/><rect height="22" width="53.6640625" y="90" x="0" class="er attributeBoxEven"/><text style="dominant-baseline: middle; font-size: 10.2px;" transform="translate(5,101)" y="0" x="0" id="text-entity-Role-0d1a36f9-6e20-4ecb-897f-c2a3af414139-attr-4-type" class="er entityLabel">DateTime</text><rect height="22" width="57.6484375" y="90" x="53.6640625" class="er attributeBoxEven"/><text style="dominant-baseline: middle; font-size: 10.2px;" transform="translate(58.6640625,101)" y="0" x="0" id="text-entity-Role-0d1a36f9-6e20-4ecb-897f-c2a3af414139-attr-4-name" class="er entityLabel">updatedAt</text><rect height="22" width="21.5625" y="90" x="111.3125" class="er attributeBoxEven"/><text style="dominant-baseline: middle; font-size: 10.2px;" transform="translate(116.3125,101)" y="0" x="0" id="text-entity-Role-0d1a36f9-6e20-4ecb-897f-c2a3af414139-attr-4-key" class="er entityLabel"/></g><rect height="14" width="27.5703125" y="335.7319641113281" x="89.15414428710938" class="er relationshipLabelBox"/><text style="text-anchor: middle; dominant-baseline: middle; font-size: 12px;" y="342.7319641113281" x="102.93930053710938" id="rel1" class="er relationshipLabel">team</text><rect height="14" width="22.625" y="294.1377258300781" x="314.8702087402344" class="er relationshipLabelBox"/><text style="text-anchor: middle; dominant-baseline: middle; font-size: 12px;" y="301.1377258300781" x="326.1827087402344" id="rel2" class="er relationshipLabel">user</text><rect height="14" width="65.8828125" y="112.58210754394531" x="206.3167266845703" class="er relationshipLabelBox"/><text style="text-anchor: middle; dominant-baseline: middle; font-size: 12px;" y="119.58210754394531" x="239.2581329345703" id="rel3" class="er relationshipLabel">membership</text><rect height="14" width="21.1875" y="98.8004150390625" x="410.3228454589844" class="er relationshipLabelBox"/><text style="text-anchor: middle; dominant-baseline: middle; font-size: 12px;" y="105.8004150390625" x="420.9165954589844" id="rel4" class="er relationshipLabel">role</text></svg>